<svg xmlns="http://www.w3.org/2000/svg" viewBox="0 0 500 500"><g id="freepik--background-complete--inject-238"><rect y="382.4" width="500" height="0.25" style="fill:#ebebeb"></rect><rect x="416.78" y="398.49" width="33.12" height="0.25" style="fill:#ebebeb"></rect><rect x="322.53" y="401.21" width="8.69" height="0.25" style="fill:#ebebeb"></rect><rect x="396.59" y="389.21" width="19.19" height="0.25" style="fill:#ebebeb"></rect><rect x="52.46" y="390.89" width="43.19" height="0.25" style="fill:#ebebeb"></rect><rect x="104.56" y="390.89" width="6.33" height="0.25" style="fill:#ebebeb"></rect><rect x="131.47" y="395.11" width="93.68" height="0.25" style="fill:#ebebeb"></rect><path d="M237,337.8H43.91a5.71,5.71,0,0,1-5.7-5.71V60.66A5.71,5.71,0,0,1,43.91,55H237a5.71,5.71,0,0,1,5.71,5.71V332.09A5.71,5.71,0,0,1,237,337.8ZM43.91,55.2a5.46,5.46,0,0,0-5.45,5.46V332.09a5.46,5.46,0,0,0,5.45,5.46H237a5.47,5.47,0,0,0,5.46-5.46V60.66A5.47,5.47,0,0,0,237,55.2Z" style="fill:#ebebeb"></path><path d="M453.31,337.8H260.21a5.72,5.72,0,0,1-5.71-5.71V60.66A5.72,5.72,0,0,1,260.21,55h193.1A5.71,5.71,0,0,1,459,60.66V332.09A5.71,5.71,0,0,1,453.31,337.8ZM260.21,55.2a5.47,5.47,0,0,0-5.46,5.46V332.09a5.47,5.47,0,0,0,5.46,5.46h193.1a5.47,5.47,0,0,0,5.46-5.46V60.66a5.47,5.47,0,0,0-5.46-5.46Z" style="fill:#ebebeb"></path><rect x="219.51" y="113.07" width="91.95" height="207.14" style="fill:#ebebeb"></rect><rect x="165.8" y="174.13" width="199.37" height="85.01" transform="translate(482.12 -48.84) rotate(90)" style="fill:#fafafa"></rect><rect x="264.5" y="115.96" width="1.95" height="202.31" style="fill:#f5f5f5"></rect><rect x="217.38" y="110.37" width="96.19" height="9.75" style="fill:#e0e0e0"></rect><rect x="217.38" y="121.2" width="96.19" height="1.16" style="fill:#f5f5f5"></rect><rect x="217.38" y="123.83" width="96.19" height="1.16" style="fill:#f5f5f5"></rect><rect x="217.38" y="126.45" width="96.19" height="1.16" style="fill:#f5f5f5"></rect><rect x="217.38" y="129.07" width="96.19" height="1.16" style="fill:#f5f5f5"></rect><rect x="217.38" y="131.69" width="96.19" height="1.16" style="fill:#f5f5f5"></rect><rect x="217.38" y="134.31" width="96.19" height="1.16" style="fill:#f5f5f5"></rect><rect x="217.38" y="136.94" width="96.19" height="1.16" style="fill:#f5f5f5"></rect><rect x="217.38" y="139.56" width="96.19" height="1.16" style="fill:#f5f5f5"></rect><rect x="217.38" y="142.18" width="96.19" height="1.16" style="fill:#f5f5f5"></rect><rect x="217.38" y="144.8" width="96.19" height="1.16" style="fill:#f5f5f5"></rect><rect x="217.38" y="147.43" width="96.19" height="1.16" style="fill:#f5f5f5"></rect><rect x="217.38" y="150.05" width="96.19" height="1.16" style="fill:#f5f5f5"></rect><rect x="217.38" y="152.67" width="96.19" height="1.16" style="fill:#f5f5f5"></rect><rect x="217.38" y="155.29" width="96.19" height="1.16" style="fill:#f5f5f5"></rect><rect x="217.38" y="157.92" width="96.19" height="1.16" style="fill:#f5f5f5"></rect><rect x="217.38" y="160.54" width="96.19" height="1.16" style="fill:#f5f5f5"></rect><rect x="217.38" y="163.16" width="96.19" height="1.16" style="fill:#f5f5f5"></rect><rect x="217.38" y="165.78" width="96.19" height="1.16" style="fill:#f5f5f5"></rect><rect x="328.37" y="113.07" width="91.95" height="207.14" style="fill:#ebebeb"></rect><rect x="274.66" y="174.13" width="199.37" height="85.01" transform="translate(590.98 -157.7) rotate(90)" style="fill:#fafafa"></rect><rect x="373.36" y="115.96" width="1.95" height="202.31" style="fill:#f5f5f5"></rect><rect x="326.24" y="110.37" width="96.19" height="9.75" style="fill:#e0e0e0"></rect><rect x="326.24" y="121.2" width="96.19" height="1.16" style="fill:#f5f5f5"></rect><rect x="326.24" y="123.83" width="96.19" height="1.16" style="fill:#f5f5f5"></rect><rect x="326.24" y="126.45" width="96.19" height="1.16" style="fill:#f5f5f5"></rect><rect x="326.24" y="129.07" width="96.19" height="1.16" style="fill:#f5f5f5"></rect><rect x="326.24" y="131.69" width="96.19" height="1.16" style="fill:#f5f5f5"></rect><rect x="326.24" y="134.31" width="96.19" height="1.16" style="fill:#f5f5f5"></rect><rect x="326.24" y="136.94" width="96.19" height="1.16" style="fill:#f5f5f5"></rect><rect x="326.24" y="139.56" width="96.19" height="1.16" style="fill:#f5f5f5"></rect><rect x="326.24" y="142.18" width="96.19" height="1.16" style="fill:#f5f5f5"></rect><rect x="326.24" y="144.8" width="96.19" height="1.16" style="fill:#f5f5f5"></rect><rect x="326.24" y="147.43" width="96.19" height="1.16" style="fill:#f5f5f5"></rect><rect x="326.24" y="150.05" width="96.19" height="1.16" style="fill:#f5f5f5"></rect><rect x="326.24" y="152.67" width="96.19" height="1.16" style="fill:#f5f5f5"></rect><rect x="326.24" y="155.29" width="96.19" height="1.16" style="fill:#f5f5f5"></rect><rect x="326.24" y="157.92" width="96.19" height="1.16" style="fill:#f5f5f5"></rect><rect x="326.24" y="160.54" width="96.19" height="1.16" style="fill:#f5f5f5"></rect><rect x="326.24" y="163.16" width="96.19" height="1.16" style="fill:#f5f5f5"></rect><rect x="326.24" y="165.78" width="96.19" height="1.16" style="fill:#f5f5f5"></rect><rect x="82.11" y="129.21" width="89.91" height="115.7" transform="translate(314.13 59.99) rotate(90)" style="fill:#e0e0e0"></rect><rect x="70.82" y="143.71" width="112.49" height="86.7" transform="translate(254.14 374.12) rotate(180)" style="fill:#ebebeb"></rect><rect x="124.68" y="159.37" width="1" height="12.09" style="fill:#e0e0e0"></rect><polygon points="98.19 210.38 97.19 210.38 97.19 170.96 149.22 170.96 149.22 193.79 148.22 193.79 148.22 171.96 98.19 171.96 98.19 210.38" style="fill:#e0e0e0"></polygon><polygon points="164.07 206.09 163.07 206.09 163.07 194.29 136.02 194.29 136.02 205.67 135.02 205.67 135.02 193.29 164.07 193.29 164.07 206.09" style="fill:#e0e0e0"></polygon><rect x="112.28" y="154.93" width="25.81" height="8.88" style="fill:#f5f5f5"></rect><rect x="136.8" y="176.25" width="24.6" height="9.65" style="fill:#f5f5f5"></rect><rect x="127.07" y="200.7" width="16.9" height="9.96" style="fill:#f5f5f5"></rect><rect x="154.52" y="202.31" width="18.09" height="7.56" style="fill:#f5f5f5"></rect><rect x="85.82" y="178.29" width="27.95" height="12.89" style="fill:#f5f5f5"></rect><rect x="88.76" y="205.67" width="17.85" height="9.42" style="fill:#f5f5f5"></rect><rect x="122.46" y="169.05" width="5.45" height="5.45" transform="translate(158.13 -38.2) rotate(45)" style="fill:#f5f5f5"></rect><rect x="145.99" y="191.07" width="5.45" height="5.45" transform="translate(180.59 -48.4) rotate(45)" style="fill:#f5f5f5"></rect><circle cx="127.07" cy="113.15" r="16.3" style="fill:#e0e0e0"></circle><circle cx="127.07" cy="113.15" r="13.86" style="fill:#f0f0f0"></circle><polyline points="127.72 103.64 127.72 113.33 134.15 109.7" style="fill:#f0f0f0"></polyline><path d="M127.72,114.33a1,1,0,0,1-.5-.13,1,1,0,0,1-.5-.87v-9.69a1,1,0,0,1,2,0v8l4.93-2.79a1,1,0,0,1,1.36.38,1,1,0,0,1-.37,1.36l-6.43,3.63A1,1,0,0,1,127.72,114.33Z" style="fill:#e0e0e0"></path></g><g id="freepik--Shadow--inject-238"><ellipse id="freepik--path--inject-238" cx="250" cy="416.24" rx="193.89" ry="11.32" style="fill:#f5f5f5"></ellipse></g><g id="freepik--Virus--inject-238"><circle cx="306.29" cy="224.73" r="117.2" transform="translate(-69.19 282.4) rotate(-45)" style="fill:#FF725E"></circle><circle cx="306.29" cy="224.73" r="114.06" transform="translate(-69.19 282.4) rotate(-45)" style="opacity:0.5"></circle><path d="M320.66,240.75a1.59,1.59,0,0,0-1.39.83l-4.56.31a19.25,19.25,0,0,0-1.16-5.61l5.24-2.48a1.53,1.53,0,0,0,.84.25,1.6,1.6,0,1,0-1.57-1.81l-5.17,2.44a20,20,0,0,0-2.83-4.42l4.37-4.35a1.86,1.86,0,0,0,.34,0,1.6,1.6,0,1,0-1.6-1.6,2,2,0,0,0,0,.34l-4.32,4.3a19.63,19.63,0,0,0-3.94-3l2.41-4.84a1.61,1.61,0,1,0-1.54-.77l-2.39,4.81a19.24,19.24,0,0,0-4.29-1.47l.8-5a1.6,1.6,0,1,0-1.7-.28l-.8,5a20.06,20.06,0,0,0-2.46-.17,20.48,20.48,0,0,0-3.52.33l-1-4.49a1.6,1.6,0,1,0-2.72-1.14,1.58,1.58,0,0,0,1,1.49l1,4.52a19.88,19.88,0,0,0-5.46,2.43l-2.61-4a1.66,1.66,0,0,0,.13-.64,1.6,1.6,0,1,0-1.59,1.6h0l2.64,4a20.06,20.06,0,0,0-4.29,4.53l-4.37-3v0a1.57,1.57,0,1,0-1,1.47l4.44,3a19.62,19.62,0,0,0-2.15,5.8l-3-.62a1.59,1.59,0,0,0-3.08.57,1.6,1.6,0,0,0,2.74,1.12l3.11.64a19.1,19.1,0,0,0-.12,2.15,20,20,0,0,0,.36,3.74l-3.33.61a1.6,1.6,0,1,0,.31,1.7l3.43-.63a19.76,19.76,0,0,0,2.4,5.31L274.91,256a1.6,1.6,0,1,0,.94,1.45h0l3.51-2.27a20.18,20.18,0,0,0,4.19,4l-2.34,3.41h0a1.62,1.62,0,1,0,1.47,1l2.37-3.45a19.69,19.69,0,0,0,6.81,2.45l-.42,3.34a1.59,1.59,0,1,0,2.29,1.44,1.57,1.57,0,0,0-.58-1.22l.42-3.36c.48,0,1,.07,1.46.07a19.59,19.59,0,0,0,5.81-.87l1.27,3.4a1.55,1.55,0,0,0-.32.95,1.6,1.6,0,1,0,1.93-1.56l-1.26-3.37a19.94,19.94,0,0,0,5-3l3.15,3.32a1.59,1.59,0,1,0,1.55-1.22,1.39,1.39,0,0,0-.3,0l-3.12-3.28a19.6,19.6,0,0,0,3.92-5.32l4.5,1.78a1.6,1.6,0,1,0,1.56-1.91,1.61,1.61,0,0,0-.93.3l-4.41-1.74a19.62,19.62,0,0,0,1.39-6.79l4.64-.31a1.59,1.59,0,1,0,1.28-2.55Z" style="fill:#FF725E"></path><path d="M295,261a17.93,17.93,0,1,1,17.93-17.93A17.95,17.95,0,0,1,295,261Z" style="opacity:0.2"></path><g style="opacity:0.5"><path d="M303,240.75a2.11,2.11,0,1,0,2.1,2.1A2.11,2.11,0,0,0,303,240.75Z" style="fill:#fff"></path><path d="M300.24,247.6a1.68,1.68,0,1,0,1.68,1.68A1.68,1.68,0,0,0,300.24,247.6Z" style="fill:#fff"></path><path d="M291.65,246.91a3.88,3.88,0,1,0-3.87-3.88A3.88,3.88,0,0,0,291.65,246.91Z" style="fill:#fff"></path><path d="M295.78,234.82a1.58,1.58,0,1,0-1.58-1.58A1.57,1.57,0,0,0,295.78,234.82Z" style="fill:#fff"></path><path d="M304.14,236.41a.8.8,0,1,0-.8-.79A.79.79,0,0,0,304.14,236.41Z" style="fill:#fff"></path><path d="M299.27,239.09a.78.78,0,1,0-.78.78A.78.78,0,0,0,299.27,239.09Z" style="fill:#fff"></path><path d="M286.24,237.79a2.28,2.28,0,1,0-2.27-2.27A2.28,2.28,0,0,0,286.24,237.79Z" style="fill:#fff"></path><path d="M283.28,247a1.52,1.52,0,1,0-1.52,1.51A1.52,1.52,0,0,0,283.28,247Z" style="fill:#fff"></path><path d="M291.28,255a.8.8,0,1,0,.8.8A.8.8,0,0,0,291.28,255Z" style="fill:#fff"></path><path d="M296.89,252a1.88,1.88,0,1,0-1.87,1.87A1.88,1.88,0,0,0,296.89,252Z" style="fill:#fff"></path><path d="M287.41,250.1a2,2,0,1,0,2,2A2,2,0,0,0,287.41,250.1Z" style="fill:#fff"></path><path d="M301.41,255.42a.51.51,0,1,0,0,1,.51.51,0,0,0,0-1Z" style="fill:#fff"></path><path d="M308.68,246.37a1.87,1.87,0,1,0,1.87,1.86A1.87,1.87,0,0,0,308.68,246.37Z" style="fill:#fff"></path><path d="M305.92,251a1,1,0,1,0,1,1A1,1,0,0,0,305.92,251Z" style="fill:#fff"></path><path d="M307.38,242.66a1.79,1.79,0,1,0-1.79-1.78A1.79,1.79,0,0,0,307.38,242.66Z" style="fill:#fff"></path><circle cx="301.14" cy="231.41" r="1.83" style="fill:#fff"></circle><path d="M291.28,234.64a.59.59,0,1,0,1.18,0,.59.59,0,0,0-1.18,0Z" style="fill:#fff"></path><path d="M291,231.2a1.11,1.11,0,1,0-1.11-1.11A1.11,1.11,0,0,0,291,231.2Z" style="fill:#fff"></path><path d="M297.32,230a1,1,0,1,0-1-1A1,1,0,0,0,297.32,230Z" style="fill:#fff"></path><path d="M285,240.88a.49.49,0,1,0,.49.49A.49.49,0,0,0,285,240.88Z" style="fill:#fff"></path><path d="M282.23,239.87a.39.39,0,0,0,.39-.39.38.38,0,0,0-.39-.39.39.39,0,0,0-.39.39A.4.4,0,0,0,282.23,239.87Z" style="fill:#fff"></path><circle cx="285.75" cy="246.68" r="0.31" style="fill:#fff"></circle><path d="M282.82,251a1,1,0,1,0,1,1A1,1,0,0,0,282.82,251Z" style="fill:#fff"></path><path d="M296.2,256.44a1.12,1.12,0,1,0,1.12,1.12A1.12,1.12,0,0,0,296.2,256.44Z" style="fill:#fff"></path><path d="M297.33,246.72a.44.44,0,1,0,.44.44A.44.44,0,0,0,297.33,246.72Z" style="fill:#fff"></path><path d="M291.71,249.35a.75.75,0,0,0-.74.75.75.75,0,0,0,1.49,0A.75.75,0,0,0,291.71,249.35Z" style="fill:#fff"></path><path d="M307.82,235.52a.44.44,0,1,0,0-.88.44.44,0,0,0,0,.88Z" style="fill:#fff"></path></g><path d="M338.72,166.87a1.7,1.7,0,0,0-1.49.88l-17.51,1a14.28,14.28,0,0,0-.57-2.53l5.07-1.89a1.69,1.69,0,0,0,1,.34,1.72,1.72,0,1,0-1.68-2.08l-5.11,1.91a13.67,13.67,0,0,0-2.48-3.57l10-10a1.5,1.5,0,0,0,.37,0,1.72,1.72,0,1,0-1.72-1.72,1.5,1.5,0,0,0,0,.37l-10.1,10.06a14.34,14.34,0,0,0-2-1.34l3-5.66a1.72,1.72,0,1,0-1.87-1.71,1.81,1.81,0,0,0,.22.84l-3.07,5.77a13.42,13.42,0,0,0-2.7-.72l2.21-13.66A1.72,1.72,0,1,0,308,141.6a1.68,1.68,0,0,0,.57,1.27l-2.22,13.8-.35,0a14.37,14.37,0,0,0-2.8.28L299,136.64a1.69,1.69,0,0,0,.52-1.22,1.73,1.73,0,1,0-2.34,1.6l4.21,20.42a14,14,0,0,0-3,1.48l-3.22-4.8a1.72,1.72,0,1,0-1.58,1h0l3.28,4.89a14.19,14.19,0,0,0-2.15,2.36l-12.06-8.21v0a1.72,1.72,0,1,0-1,1.58L293.76,164a13.8,13.8,0,0,0-1.17,3l-11.74-2.42a1.72,1.72,0,1,0-.37,1.82l11.75,2.43a15.64,15.64,0,0,0-.11,1.69c0,.41,0,.82.06,1.23l-5.25.89a1.71,1.71,0,1,0,.31,1.83l5.23-.89a13.88,13.88,0,0,0,1.16,3.2l-10.23,6.59a1.65,1.65,0,0,0-.71-.16,1.73,1.73,0,1,0,1.72,1.73h0l10.16-6.55a14.42,14.42,0,0,0,2.2,2.48l-10.58,15.34h-.06a1.72,1.72,0,1,0,1.73,1.72,1.63,1.63,0,0,0-.14-.66L298.24,182a13.59,13.59,0,0,0,4.19,1.89l-1.26,10.16a1.7,1.7,0,0,0-1,1.54,1.72,1.72,0,1,0,3.44,0,1.68,1.68,0,0,0-.62-1.31l1.25-10a13.93,13.93,0,0,0,1.72.12,13.61,13.61,0,0,0,3-.34l2,5.4a1.72,1.72,0,1,0,1.74-.64l-1.93-5.29a13.86,13.86,0,0,0,3.47-1.88l12.18,12.9a1.77,1.77,0,0,0-.05.41,1.72,1.72,0,1,0,1.72-1.73,1.75,1.75,0,0,0-.32,0l-12.1-12.83a13.89,13.89,0,0,0,2.69-3.69l3.86,1.52a1.72,1.72,0,1,0,1.69-2.06,1.64,1.64,0,0,0-1,.33l-3.83-1.5a14,14,0,0,0,.76-4.41l17.49-1a1.7,1.7,0,0,0,1.39.71,1.73,1.73,0,0,0,0-3.45Z" style="fill:#FF725E"></path><path d="M306,182.51a12,12,0,1,1,12-12A12,12,0,0,1,306,182.51Z" style="opacity:0.2"></path><g style="opacity:0.5"><path d="M306.31,163a1.44,1.44,0,1,0,1.44,1.44A1.44,1.44,0,0,0,306.31,163Z" style="fill:#fff"></path><path d="M303,170.13a.76.76,0,1,0-.76-.76A.76.76,0,0,0,303,170.13Z" style="fill:#fff"></path><path d="M311.13,169.37a2.15,2.15,0,1,0,2.15,2.15A2.15,2.15,0,0,0,311.13,169.37Z" style="fill:#fff"></path><path d="M302.75,176.18a1.18,1.18,0,1,0,1.18,1.18A1.18,1.18,0,0,0,302.75,176.18Z" style="fill:#fff"></path><path d="M307.59,173.55a1.36,1.36,0,1,0-1.36,1.35A1.35,1.35,0,0,0,307.59,173.55Z" style="fill:#fff"></path><circle cx="297.66" cy="170.96" r="2.34" style="fill:#fff"></circle><path d="M310.89,177.36a1,1,0,1,0,1,1A1,1,0,0,0,310.89,177.36Z" style="fill:#fff"></path><circle cx="313.71" cy="164.81" r="1.86" style="fill:#fff"></circle><path d="M309.37,161.34a.45.45,0,0,0-.45-.45.46.46,0,0,0-.46.45.47.47,0,0,0,.46.46A.46.46,0,0,0,309.37,161.34Z" style="fill:#fff"></path><path d="M300.15,164.81a.7.7,0,0,0,0,1.4.7.7,0,1,0,0-1.4Z" style="fill:#fff"></path><path d="M309.43,168.43a.5.5,0,0,0,.5-.51.5.5,0,0,0-.5-.5.5.5,0,0,0-.51.5A.51.51,0,0,0,309.43,168.43Z" style="fill:#fff"></path><path d="M303.93,160.33a1,1,0,1,0,1,1A1,1,0,0,0,303.93,160.33Z" style="fill:#fff"></path><circle cx="299.08" cy="176.06" r="0.55" style="fill:#fff"></circle><path d="M307,179.65a.76.76,0,1,0,.76.76A.76.76,0,0,0,307,179.65Z" style="fill:#fff"></path><path d="M315.08,175.51a.28.28,0,0,0,0,.55.28.28,0,1,0,0-.55Z" style="fill:#fff"></path><path d="M316.19,170.13a.19.19,0,0,0-.19.19.2.2,0,0,0,.19.19.19.19,0,0,0,.19-.19A.18.18,0,0,0,316.19,170.13Z" style="fill:#fff"></path><path d="M310.89,175.8a.3.3,0,0,0-.59,0,.3.3,0,1,0,.59,0Z" style="fill:#fff"></path><circle cx="307.29" cy="177.66" r="0.3" style="fill:#fff"></circle><path d="M302.58,173.3a.37.37,0,0,0,.37-.37.37.37,0,0,0-.74,0A.37.37,0,0,0,302.58,173.3Z" style="fill:#fff"></path><circle cx="301.89" cy="179.97" r="0.32" style="fill:#fff"></circle><path d="M303.73,165.19a.38.38,0,1,0-.38.38A.38.38,0,0,0,303.73,165.19Z" style="fill:#fff"></path><path d="M297.84,167.21a.69.69,0,1,0-.69-.69A.69.69,0,0,0,297.84,167.21Z" style="fill:#fff"></path><path d="M314.42,167.92a.26.26,0,0,0-.26.26.26.26,0,0,0,.26.25.25.25,0,0,0,.25-.25A.26.26,0,0,0,314.42,167.92Z" style="fill:#fff"></path></g><path d="M386.3,243.27a1.47,1.47,0,0,0-1.28.58l-2.89-.31a39.91,39.91,0,0,0,.15-6.91l2.9-.18a1.5,1.5,0,0,0,1.28.63,1.55,1.55,0,0,0-.24-3.08,1.51,1.51,0,0,0-1.16.83l-2.9.29a42,42,0,0,0-1.28-6.8l2.83-.77a1.49,1.49,0,0,0,1.36.37,1.55,1.55,0,0,0-.87-3,1.43,1.43,0,0,0-.94,1l-2.81.88a39.55,39.55,0,0,0-2.64-6.37l2.61-1.36a1.54,1.54,0,0,0,1.43.06,1.56,1.56,0,0,0-1.49-2.73,1.5,1.5,0,0,0-.72,1.24l-2.56,1.47a36.34,36.34,0,0,0-4-5.61l2.23-1.93a1.44,1.44,0,0,0,1.38-.25,1.56,1.56,0,0,0-2.09-2.32,1.47,1.47,0,0,0-.39,1.36l-2.14,2a33,33,0,0,0-5.17-4.48l1.66-2.4a1.54,1.54,0,0,0,1.31-.61,1.58,1.58,0,0,0-2.64-1.72,1.56,1.56,0,0,0,0,1.44l-1.55,2.46c-.32-.2-.65-.41-1-.6a26.73,26.73,0,0,0-5.14-2.29l.91-2.81a1.48,1.48,0,0,0,1.07-.93,1.35,1.35,0,0,0-.11-1.14,1.72,1.72,0,0,0-1-.75,1.52,1.52,0,0,0-2,1,1.49,1.49,0,0,0,.43,1.36l-.73,2.86a18.61,18.61,0,0,0-4.55-.62,13.8,13.8,0,0,0-2,.14l-.4-2.91a1.61,1.61,0,0,0,.61-1.31,1.56,1.56,0,0,0-2-1.2c-1,.23-1.66,1.09-1.41,1.86a1.56,1.56,0,0,0,1.08,1l.73,2.84a11.27,11.27,0,0,0-5,2.71c-.14.13-.27.27-.4.41l-2.14-2a1.55,1.55,0,0,0-.3-1.43,1.58,1.58,0,0,0-2.36.39,1.61,1.61,0,0,0,.07,2.42,1.57,1.57,0,0,0,1.46,0l2.42,1.7a7.86,7.86,0,0,0-1.43,3.82,7.69,7.69,0,0,0,.06,1.86l-2.92.42a1.58,1.58,0,0,0-1.3-.67c-.81,0-1.41,1-1.15,2.14s1.18,1.69,1.93,1.4a1.55,1.55,0,0,0,.91-1.13l2.82-.86a14,14,0,0,0,3.37,5.42l-2.13,2a1.54,1.54,0,0,0-1.4.29,1.3,1.3,0,0,0-.42,1.07,1.74,1.74,0,0,0,.51,1.13,1.45,1.45,0,0,0,2.46-1.34l2.06-2.12.94.92a40.67,40.67,0,0,1,4.18,4.42l-2.32,1.8a1.53,1.53,0,0,0-1.76,2.14,1.42,1.42,0,0,0,1.84.17,1.4,1.4,0,0,0,.75-1.13l2.48-1.57a14.52,14.52,0,0,1,1.69,3.65,15.27,15.27,0,0,1,.61,3.93l-2.93.1a1.39,1.39,0,0,0-1.26-.52,1.22,1.22,0,1,0,0,2.42,1.41,1.41,0,0,0,1.27-.47l2.93.21a18.19,18.19,0,0,1-2.24,7.46l-2.56-1.4a1.32,1.32,0,1,0-.76,1.26l2.46,1.6A43.25,43.25,0,0,1,348,252l-2.16-2a1.45,1.45,0,1,0-2.42.77,1.46,1.46,0,0,0,1.35.37l2.13,2-.82.86-.81.84c-.28.3-.57.59-.85.88a19.48,19.48,0,0,0-2.23,2.52l-2.41-1.7a1.54,1.54,0,0,0-.52-1.36c-.61-.5-1.68-.28-2.29.76s-.33,2.25.43,2.49a1.61,1.61,0,0,0,1.46-.32l2.67,1.24a6.74,6.74,0,0,0-.43,1.29,6.84,6.84,0,0,0,.64,4.31l-2.67,1.27a1.59,1.59,0,0,0-1.45-.26,1.62,1.62,0,0,0-.47,2.39,1.6,1.6,0,0,0,2.28.78,1.52,1.52,0,0,0,.52-1.36l2.45-1.66A9,9,0,0,0,344,268a19.66,19.66,0,0,0,3.29,2.2l-1.38,2.6a1.47,1.47,0,0,0-1.24.72,1.66,1.66,0,0,0,3,1.43,1.55,1.55,0,0,0-.22-1.42l1.16-2.71a16.75,16.75,0,0,0,6.38,1.37l-.05,2.95a1.48,1.48,0,0,0-.79,1.2,1.53,1.53,0,0,0,1.69,1.48,1.51,1.51,0,0,0,1.61-1.56,1.46,1.46,0,0,0-.83-1.15l-.18-3a21.31,21.31,0,0,0,6.48-1.5l1.09,2.75a1.5,1.5,0,1,0,2.7.13,1.47,1.47,0,0,0-1.17-.79l-1.26-2.67a29,29,0,0,0,5.77-3.6l1.83,2.29a1.47,1.47,0,0,0,.19,1.4,1.57,1.57,0,0,0,2.41-2,1.45,1.45,0,0,0-1.34-.43l-1.94-2.2a32.18,32.18,0,0,0,4.63-5l2.35,1.75a1.46,1.46,0,0,0,.55,1.3,1.48,1.48,0,0,0,2.13-.42,1.5,1.5,0,0,0-.31-2.15,1.52,1.52,0,0,0-1.42-.07l-2.43-1.64a29.32,29.32,0,0,0,2.65-4.9c.16-.38.31-.77.46-1.15l2.72,1a1.5,1.5,0,0,0,.9,1.11,1.47,1.47,0,0,0,1.91-1,1.45,1.45,0,0,0-.84-1.95,1.52,1.52,0,0,0-1.41.28l-2.77-.93a38.4,38.4,0,0,0,1.6-6.7l2.89.42a1.45,1.45,0,0,0,1.09.88,1.55,1.55,0,0,0,.38-3.08Z" style="fill:#FF725E"></path><path d="M355.33,270.34a15.49,15.49,0,0,1-10.1-3.78c-1.4-1.16-2.72-3.37-2.29-5.49.28-1.42,1.4-2.55,2.81-4l.88-.89.81-.85a51.94,51.94,0,0,0,7.31-8.88A19.29,19.29,0,0,0,357,231.12c-1.34-4.55-4.54-7.6-7.36-10.3-.64-.61-1.24-1.17-1.81-1.75-1.38-1.4-3.66-4.21-3.37-7.3a6.42,6.42,0,0,1,2.1-4.08,10,10,0,0,1,7-2.61,21.1,21.1,0,0,1,10.18,3.07c14.64,8.45,20.87,28.85,13.89,45.46C373.65,263.15,364.05,270.34,355.33,270.34Z" style="opacity:0.2"></path><g style="opacity:0.5"><path d="M358.18,216.76a2.24,2.24,0,1,0-2.24-2.23A2.23,2.23,0,0,0,358.18,216.76Z" style="fill:#fff"></path><path d="M363.13,223.76a1.45,1.45,0,1,0-1.44-1.44A1.45,1.45,0,0,0,363.13,223.76Z" style="fill:#fff"></path><path d="M367.65,222.32a2,2,0,1,0-2-2A2,2,0,0,0,367.65,222.32Z" style="fill:#fff"></path><path d="M368.94,234.69a3,3,0,1,0,3-3A3,3,0,0,0,368.94,234.69Z" style="fill:#fff"></path><path d="M370.91,245a2.64,2.64,0,1,0-2.64,2.65A2.64,2.64,0,0,0,370.91,245Z" style="fill:#fff"></path><path d="M365.63,256.58a1.05,1.05,0,1,0,1.05,1.05A1,1,0,0,0,365.63,256.58Z" style="fill:#fff"></path><path d="M356.37,261a1.16,1.16,0,1,0-1.16-1.16A1.15,1.15,0,0,0,356.37,261Z" style="fill:#fff"></path><path d="M349.11,264.52a.77.77,0,1,0,.76.76A.76.76,0,0,0,349.11,264.52Z" style="fill:#fff"></path><path d="M362.22,251a1.67,1.67,0,1,0-1.67,1.67A1.67,1.67,0,0,0,362.22,251Z" style="fill:#fff"></path><path d="M368.94,251.39a.36.36,0,0,0,.37.37.37.37,0,0,0,.37-.37.38.38,0,0,0-.37-.37A.37.37,0,0,0,368.94,251.39Z" style="fill:#fff"></path><circle cx="372.98" cy="244.82" r="1.02" style="fill:#fff"></circle><circle cx="365" cy="236.56" r="3.31" style="fill:#fff"></circle><path d="M370.42,227.93a1.06,1.06,0,0,0-2.11,0,1.06,1.06,0,1,0,2.11,0Z" style="fill:#fff"></path><path d="M351.22,210a2.88,2.88,0,1,0,2.88,2.88A2.88,2.88,0,0,0,351.22,210Z" style="fill:#fff"></path><path d="M360.07,221a1.28,1.28,0,1,0-1.27,1.28A1.27,1.27,0,0,0,360.07,221Z" style="fill:#fff"></path><path d="M356.45,263.78a2.35,2.35,0,1,0,2.35,2.35A2.35,2.35,0,0,0,356.45,263.78Z" style="fill:#fff"></path><path d="M350.53,257a2.19,2.19,0,1,0,2.19,2.19A2.19,2.19,0,0,0,350.53,257Z" style="fill:#fff"></path><path d="M363.06,257.69a1.26,1.26,0,1,0-1.25,1.25A1.25,1.25,0,0,0,363.06,257.69Z" style="fill:#fff"></path><path d="M363,261.42a1.18,1.18,0,1,0,1.18,1.18A1.18,1.18,0,0,0,363,261.42Z" style="fill:#fff"></path><path d="M371.77,254a2.46,2.46,0,1,0,2.45,2.46A2.46,2.46,0,0,0,371.77,254Z" style="fill:#fff"></path><path d="M366.14,250.1a2,2,0,1,0,2,2A2,2,0,0,0,366.14,250.1Z" style="fill:#fff"></path><path d="M357.1,254.17a1.26,1.26,0,1,0-1.25,1.25A1.25,1.25,0,0,0,357.1,254.17Z" style="fill:#fff"></path><path d="M361.09,246.36a1.54,1.54,0,1,0,1.54-1.54A1.54,1.54,0,0,0,361.09,246.36Z" style="fill:#fff"></path><path d="M373.87,241.71a1,1,0,1,0-1.91,0,1,1,0,0,0,1.91,0Z" style="fill:#fff"></path><path d="M375,227.37a2.09,2.09,0,1,0-2.09-2.09A2.08,2.08,0,0,0,375,227.37Z" style="fill:#fff"></path><path d="M363.36,231.41a2.27,2.27,0,1,0-2.27-2.27A2.26,2.26,0,0,0,363.36,231.41Z" style="fill:#fff"></path><path d="M364,215.75a.61.61,0,0,0,.61-.61.61.61,0,1,0-1.22,0A.61.61,0,0,0,364,215.75Z" style="fill:#fff"></path><path d="M356.94,209.28a.58.58,0,1,0-.57-.58A.57.57,0,0,0,356.94,209.28Z" style="fill:#fff"></path><circle cx="355.12" cy="219.28" r="1.01" style="fill:#fff"></circle><path d="M362.37,212.19a.68.68,0,1,0-.68-.68A.68.68,0,0,0,362.37,212.19Z" style="fill:#fff"></path><path d="M368.27,225.44a.31.31,0,1,0-.31.31A.31.31,0,0,0,368.27,225.44Z" style="fill:#fff"></path><path d="M369.75,216.76a.81.81,0,1,0,0-1.62.81.81,0,0,0,0,1.62Z" style="fill:#fff"></path><path d="M358.54,226.16a.72.72,0,1,0-.72.72A.72.72,0,0,0,358.54,226.16Z" style="fill:#fff"></path><path d="M376.52,231.48a.28.28,0,0,0,.28.28.27.27,0,0,0,.28-.28.28.28,0,0,0-.28-.28A.29.29,0,0,0,376.52,231.48Z" style="fill:#fff"></path><path d="M378.54,236.56A1.46,1.46,0,1,0,380,238,1.46,1.46,0,0,0,378.54,236.56Z" style="fill:#fff"></path><path d="M375.9,248.23a.91.91,0,1,0,.9.91A.9.9,0,0,0,375.9,248.23Z" style="fill:#fff"></path><path d="M377.12,244.82a.33.33,0,0,0,0,.65.33.33,0,1,0,0-.65Z" style="fill:#fff"></path><path d="M360.07,241.53a.78.78,0,1,0,.78-.78A.78.78,0,0,0,360.07,241.53Z" style="fill:#fff"></path><path d="M358.88,246.63a.29.29,0,0,0,.28.28.28.28,0,0,0,.27-.28.27.27,0,0,0-.27-.27A.28.28,0,0,0,358.88,246.63Z" style="fill:#fff"></path><path d="M364.58,241.27a.52.52,0,1,0,.52-.52A.52.52,0,0,0,364.58,241.27Z" style="fill:#fff"></path><circle cx="370.12" cy="238.75" r="0.44" style="fill:#fff"></circle><path d="M374.7,250.1a.83.83,0,1,0,.83.83A.83.83,0,0,0,374.7,250.1Z" style="fill:#fff"></path><circle cx="369.15" cy="261.51" r="0.22" style="fill:#fff"></circle><path d="M351.62,255.78a.4.4,0,1,0-.4-.4A.4.4,0,0,0,351.62,255.78Z" style="fill:#fff"></path><path d="M356.9,248.5a.77.77,0,1,0,.76.77A.77.77,0,0,0,356.9,248.5Z" style="fill:#fff"></path><circle cx="351.6" cy="219.39" r="0.37" style="fill:#fff"></circle><path d="M353.41,207.91a.69.69,0,1,0-.69-.69A.69.69,0,0,0,353.41,207.91Z" style="fill:#fff"></path></g><path d="M262.67,261.14a20.13,20.13,0,0,0-3.24-2.72,14.24,14.24,0,0,0-1.87-1.05,13.5,13.5,0,0,0-2-.64,6.45,6.45,0,0,1-3.11-2.35,28.14,28.14,0,0,1-3.4-7.46c-.46-1.32-.92-2.66-1.48-4-.12-.29-.25-.59-.39-.88a11.2,11.2,0,0,0,2-3.07c2.56-5.81-1.13-19.63,3.62-28.11s10-19.78.47-22.67c-4.28-1.29-11.78,1.78-16,16.78s-4.28,27.26-1.14,35.11c1,2.49,2.42,3.87,4,4.41a38.25,38.25,0,0,0,.64,5.81,18.6,18.6,0,0,0,.6,2.15,8.34,8.34,0,0,0,.47,1.06l.28.51.28.45a16.18,16.18,0,0,1,1.79,3.73,6.91,6.91,0,0,1,.1,4,7.81,7.81,0,0,1-2.22,3.43,8.49,8.49,0,0,0-2.23,3.71,6.07,6.07,0,0,0-.17,2.16,4.71,4.71,0,0,0,.24,1.05,2.78,2.78,0,0,0,.24.49c.09.12.23.36.41.26-.18.09-.3-.15-.39-.28a2.65,2.65,0,0,1-.2-.49,4,4,0,0,1-.18-1,5.63,5.63,0,0,1,.28-2.08,8.09,8.09,0,0,1,2.32-3.44,8.48,8.48,0,0,0,2.57-3.56,6.92,6.92,0,0,0,.4-2.22,9.32,9.32,0,0,0-.27-2.23,17.36,17.36,0,0,0-1.68-4.07l-.27-.48-.21-.44a9.19,9.19,0,0,1-.35-.92,16.52,16.52,0,0,1-.43-2,33.19,33.19,0,0,1-.31-5.29,6.88,6.88,0,0,0,.77-.07c0,.33.09.67.15,1a13.56,13.56,0,0,0,1.45,4.22A17,17,0,0,0,247,253.3c1,1,2,2,2.89,3a9.42,9.42,0,0,1,2,3.49,5.72,5.72,0,0,1,.15,2c0,.33-.07.71-.11,1.06s0,.72,0,1.08a12.22,12.22,0,0,0,.8,4.19,8.27,8.27,0,0,0,1,1.87,2.57,2.57,0,0,0,1.73,1.13,2.46,2.46,0,0,1-1.63-1.2,7.56,7.56,0,0,1-.9-1.88,11.74,11.74,0,0,1-.56-4.11c0-.34.05-.69.08-1s.12-.66.16-1a6.32,6.32,0,0,0,0-2.21,10.21,10.21,0,0,0-2-3.91c-.87-1.15-1.85-2.19-2.78-3.24a15.93,15.93,0,0,1-2.43-3.22,13,13,0,0,1-1.17-5.07,8,8,0,0,0,1.62-1c.06.13.13.25.19.38.6,1.22,1.12,2.51,1.66,3.81a28.8,28.8,0,0,0,4,7.55,7.18,7.18,0,0,0,3.63,2.43,12.42,12.42,0,0,1,2,.51,12.64,12.64,0,0,1,1.85.9,19.12,19.12,0,0,1,3.32,2.5,13.59,13.59,0,0,1,1.42,1.52,3.58,3.58,0,0,1,.9,1.85,3.58,3.58,0,0,0-.81-1.92A14.77,14.77,0,0,0,262.67,261.14Z" style="fill:#FF725E"></path><path d="M242.07,242.91c-2.22.21-3.51-1.79-4.2-3.51-3.15-7.85-2.72-19.89,1.2-33.91,3.88-13.84,10-15.48,11.81-15.66a4.86,4.86,0,0,1,1.84.16,5.13,5.13,0,0,1,3.61,2.88c1.85,4.58-3.25,13.68-5.17,17.1-3,5.32-2.91,12.24-2.85,18.35,0,4,.08,7.82-.84,9.92C246.35,240.79,244.13,242.71,242.07,242.91Z" style="opacity:0.2"></path><g style="opacity:0.5"><path d="M249.73,194.75a3.3,3.3,0,1,0,3.59,3A3.31,3.31,0,0,0,249.73,194.75Z" style="fill:#fff"></path><path d="M242.5,233.6a3,3,0,1,0,3.31,2.73A3,3,0,0,0,242.5,233.6Z" style="fill:#fff"></path><path d="M242.52,216.91a.89.89,0,1,0,.8-1A.89.89,0,0,0,242.52,216.91Z" style="fill:#fff"></path><path d="M244.11,208.52a1.49,1.49,0,1,0-1.64-1.34A1.49,1.49,0,0,0,244.11,208.52Z" style="fill:#fff"></path><path d="M241,228.12a2,2,0,1,0-2.21-1.82A2,2,0,0,0,241,228.12Z" style="fill:#fff"></path><path d="M245.4,229.72a.75.75,0,1,0,.82.67A.75.75,0,0,0,245.4,229.72Z" style="fill:#fff"></path><path d="M251.12,204.32a.47.47,0,0,0-.42.51.47.47,0,1,0,.94-.09A.47.47,0,0,0,251.12,204.32Z" style="fill:#fff"></path><path d="M248.14,209.44a.31.31,0,0,0-.27.33.3.3,0,0,0,.33.28.32.32,0,0,0,.28-.33A.31.31,0,0,0,248.14,209.44Z" style="fill:#fff"></path><path d="M242.46,215.5a1.7,1.7,0,1,0-1.85-1.53A1.7,1.7,0,0,0,242.46,215.5Z" style="fill:#fff"></path><path d="M244.36,218.43a2.3,2.3,0,1,0,2.5,2.06A2.3,2.3,0,0,0,244.36,218.43Z" style="fill:#fff"></path><path d="M240.66,219.8a.5.5,0,0,0,.45-.55.51.51,0,0,0-.55-.46.51.51,0,0,0-.45.56A.5.5,0,0,0,240.66,219.8Z" style="fill:#fff"></path><path d="M249,212.32a.21.21,0,0,0-.2.23.22.22,0,0,0,.24.2.23.23,0,0,0,.19-.24A.21.21,0,0,0,249,212.32Z" style="fill:#fff"></path><path d="M243.63,210.92a1,1,0,1,0,.94-1.14A1,1,0,0,0,243.63,210.92Z" style="fill:#fff"></path><path d="M239.74,231.5a1.08,1.08,0,0,0,2.14-.21,1.08,1.08,0,1,0-2.14.21Z" style="fill:#fff"></path><path d="M245.63,225.63a.48.48,0,0,0,.09,1,.48.48,0,0,0-.09-1Z" style="fill:#fff"></path><path d="M245.94,233.2a.43.43,0,0,0,.08.86.44.44,0,0,0,.39-.47A.43.43,0,0,0,245.94,233.2Z" style="fill:#fff"></path><path d="M245.71,200.44a1,1,0,0,0,.89-1.08,1,1,0,1,0-.89,1.08Z" style="fill:#fff"></path><path d="M247.74,202.49a1.82,1.82,0,1,0,2,1.64A1.83,1.83,0,0,0,247.74,202.49Z" style="fill:#fff"></path><path d="M251.88,193.31a.55.55,0,0,0,.5-.6.55.55,0,1,0-1.1.11A.55.55,0,0,0,251.88,193.31Z" style="fill:#fff"></path><path d="M254.69,194.27a.44.44,0,0,0-.39.47.43.43,0,1,0,.39-.47Z" style="fill:#fff"></path><path d="M243.17,203.91a.48.48,0,0,0,.44-.53.49.49,0,0,0-1,.09A.48.48,0,0,0,243.17,203.91Z" style="fill:#fff"></path><path d="M247.08,213.35a1.11,1.11,0,1,0,1.21,1A1.1,1.1,0,0,0,247.08,213.35Z" style="fill:#fff"></path><path d="M240,209.51a.29.29,0,1,0-.32-.26A.29.29,0,0,0,240,209.51Z" style="fill:#fff"></path><path d="M239,222.86a.54.54,0,0,0-.1-1.07.54.54,0,0,0,.1,1.07Z" style="fill:#fff"></path><path d="M238.18,233.49a.46.46,0,0,0-.41.5.45.45,0,1,0,.41-.5Z" style="fill:#fff"></path><path d="M237.86,226.86a.77.77,0,1,0,.84.7A.78.78,0,0,0,237.86,226.86Z" style="fill:#fff"></path><path d="M238.82,215.85a.53.53,0,0,0,.48-.58.54.54,0,1,0-1.07.1A.53.53,0,0,0,238.82,215.85Z" style="fill:#fff"></path></g><path d="M309.69,292.26l-.4-.3c-3.79-2.86,1.15-7.13,4.07-8.12,6.24-2.1,14,.22,17,6.38a11.75,11.75,0,0,1,.28,9.69,5.13,5.13,0,0,1-2.57,2.64c-4.05,1.67-7.65-2.64-10.37-4.89C315.21,295.61,312.28,294.15,309.69,292.26Z" style="fill:#FF725E"></path><path d="M326.2,301.07c-1.93,0-4-1.88-5.84-3.54-.52-.47-1-.91-1.48-1.3a41.76,41.76,0,0,0-4.77-3.28c-1.17-.74-2.27-1.43-3.32-2.2l-.38-.27c-.71-.54-.65-.9-.62-1.1.22-1.33,2.51-3.21,4.17-3.77a12.76,12.76,0,0,1,4.1-.66c4.67,0,8.84,2.38,10.61,6.07a9.92,9.92,0,0,1,.27,8.11,3.28,3.28,0,0,1-1.59,1.7A2.93,2.93,0,0,1,326.2,301.07Z" style="opacity:0.2"></path><path d="M297.85,286.59a5.09,5.09,0,0,1,3.92-1c2.49.49,3.35,3.05,4.38,5.09,2.74,5.47,10.31,4.94,13.38,10.26a5.73,5.73,0,0,1,.83,3.62c-.5,3.31-4.59,3.92-7.29,4.18-7.4.7-17.42-2-19.5-10.12a11.65,11.65,0,0,1,1.6-9.21A10.59,10.59,0,0,1,297.85,286.59Z" style="fill:#FF725E"></path><path d="M310.75,307c-6.05,0-13.71-2.32-15.38-8.84a9.77,9.77,0,0,1,1.34-7.71,8.66,8.66,0,0,1,2.2-2.3,3.86,3.86,0,0,1,2.06-.77,2,2,0,0,1,.43,0c1.16.23,1.78,1.37,2.66,3.22l.42.88c1.69,3.37,4.84,4.83,7.61,6.11,2.37,1.11,4.62,2.15,5.83,4.25a3.92,3.92,0,0,1,.6,2.42c-.22,1.44-2,2.25-5.63,2.6C312.2,306.93,311.48,307,310.75,307Z" style="opacity:0.2"></path><g style="opacity:0.5"><path d="M302.58,298.08a2,2,0,1,0,2,2A2,2,0,0,0,302.58,298.08Z" style="fill:#fff"></path><path d="M308.85,301.07a.93.93,0,1,0,.93.92A.92.92,0,0,0,308.85,301.07Z" style="fill:#fff"></path><path d="M313.92,302.92a.49.49,0,1,0,.49.49A.49.49,0,0,0,313.92,302.92Z" style="fill:#fff"></path><path d="M306.26,296a.55.55,0,0,0,.56-.55.56.56,0,1,0-1.12,0A.55.55,0,0,0,306.26,296Z" style="fill:#fff"></path><circle cx="302.4" cy="293.93" r="0.93" style="fill:#fff"></circle><path d="M299.46,294.86a.56.56,0,0,0-.56.56.56.56,0,0,0,1.11,0A.56.56,0,0,0,299.46,294.86Z" style="fill:#fff"></path><path d="M301.47,290.91a.46.46,0,1,0-.45-.46A.46.46,0,0,0,301.47,290.91Z" style="fill:#fff"></path><path d="M298.35,297.53a1.11,1.11,0,1,0,1.11,1.11A1.1,1.1,0,0,0,298.35,297.53Z" style="fill:#fff"></path><path d="M305.71,303.9a1.11,1.11,0,1,0,1.1,1.11A1.11,1.11,0,0,0,305.71,303.9Z" style="fill:#fff"></path><path d="M312.64,300.1a.79.79,0,1,0,.79.79A.79.79,0,0,0,312.64,300.1Z" style="fill:#fff"></path><path d="M307.09,298.08a.28.28,0,1,0,.28.28A.29.29,0,0,0,307.09,298.08Z" style="fill:#fff"></path><path d="M311.18,304.52a.41.41,0,0,0-.42.41.42.42,0,1,0,.83,0A.41.41,0,0,0,311.18,304.52Z" style="fill:#fff"></path><path d="M298.94,291.46a1.24,1.24,0,1,0,1.24,1.24A1.24,1.24,0,0,0,298.94,291.46Z" style="fill:#fff"></path><circle cx="297.18" cy="295.25" r="0.39" style="fill:#fff"></circle><path d="M310.49,298.36a1.11,1.11,0,1,0,1.1,1.1A1.11,1.11,0,0,0,310.49,298.36Z" style="fill:#fff"></path><path d="M301.71,302.93a.69.69,0,1,0,.69.69A.69.69,0,0,0,301.71,302.93Z" style="fill:#fff"></path><path d="M317.35,303.41a.25.25,0,1,0,.25.25A.25.25,0,0,0,317.35,303.41Z" style="fill:#fff"></path><path d="M325.42,290.61a2.09,2.09,0,1,0-2.09,2.09A2.08,2.08,0,0,0,325.42,290.61Z" style="fill:#fff"></path><path d="M325.2,297.16a.46.46,0,0,0-.46.46.47.47,0,0,0,.46.46.46.46,0,0,0,.46-.46A.45.45,0,0,0,325.2,297.16Z" style="fill:#fff"></path><path d="M315.46,288.52a1,1,0,1,0,1,1A1,1,0,0,0,315.46,288.52Z" style="fill:#fff"></path><path d="M320.07,292.7a.34.34,0,1,0,0,.67.34.34,0,0,0,0-.67Z" style="fill:#fff"></path><path d="M318.18,287.35a.59.59,0,1,0,.59.58A.58.58,0,0,0,318.18,287.35Z" style="fill:#fff"></path><path d="M328,293.93a1.62,1.62,0,1,0,0,3.23,1.62,1.62,0,0,0,0-3.23Z" style="fill:#fff"></path><path d="M322.48,296a.6.6,0,1,0,.59.6A.59.59,0,0,0,322.48,296Z" style="fill:#fff"></path><path d="M325.38,299.74a.18.18,0,1,0,.18.18A.18.18,0,0,0,325.38,299.74Z" style="fill:#fff"></path><path d="M324.74,295.09a.23.23,0,0,0,.46,0,.23.23,0,0,0-.46,0Z" style="fill:#fff"></path><path d="M317.35,292.25a.25.25,0,0,0,0,.49.25.25,0,1,0,0-.49Z" style="fill:#fff"></path><path d="M320.62,295.55a.21.21,0,1,0,0,.42.21.21,0,0,0,0-.42Z" style="fill:#fff"></path><path d="M321,287.35a.2.2,0,0,0-.21.2.21.21,0,0,0,.21.21.21.21,0,1,0,0-.41Z" style="fill:#fff"></path><path d="M320.42,291a.51.51,0,0,0-.51-.5.51.51,0,0,0,0,1A.51.51,0,0,0,320.42,291Z" style="fill:#fff"></path><path d="M311.28,288.52a.52.52,0,1,0,.53.52A.52.52,0,0,0,311.28,288.52Z" style="fill:#fff"></path><path d="M314.62,287.76a.2.2,0,0,0,.2-.21.2.2,0,0,0-.2-.2.2.2,0,0,0-.21.2A.21.21,0,0,0,314.62,287.76Z" style="fill:#fff"></path><path d="M313.58,290.91a.15.15,0,1,0-.15-.15A.15.15,0,0,0,313.58,290.91Z" style="fill:#fff"></path><path d="M316,292.12a.53.53,0,1,0,.52.53A.52.52,0,0,0,316,292.12Z" style="fill:#fff"></path></g><path d="M358.29,143.29a2.15,2.15,0,0,1,1.9,0c2,1.07,1.29,4.38,1.15,6.19a34,34,0,0,0-.2,5.71c.2,2,1.08,3.82,1.45,5.77a3.91,3.91,0,0,1-.2,2.51,2.64,2.64,0,0,1-3.11,1.18c-2.08-.64-2.7-3-3-4.93a51.17,51.17,0,0,1-1-7.69c-.07-2.54.07-6.14,2-8.07A3.32,3.32,0,0,1,358.29,143.29Z" style="fill:#FF725E"></path><path d="M360.1,163a.77.77,0,0,1-.27,0c-.83-.25-1.37-1.33-1.76-3.48a49.49,49.49,0,0,1-.94-7.41c-.09-3.39.39-5.65,1.44-6.71A1.37,1.37,0,0,1,359,145a.68.68,0,0,1,.22-.05c.7.34.46,2.47.35,3.49,0,.34-.07.66-.09.94l-.09,1.06a28.27,28.27,0,0,0-.11,5,17.91,17.91,0,0,0,.86,3.67,22.57,22.57,0,0,1,.61,2.26,2.16,2.16,0,0,1,0,1.31A.72.72,0,0,1,360.1,163Z" style="opacity:0.2"></path><path d="M380.31,196.27a2.19,2.19,0,0,1-1.89.09c-2.09-.94-1.58-4.29-1.56-6.11a34,34,0,0,0-.18-5.71c-.32-2-1.33-3.74-1.82-5.66a4,4,0,0,1,0-2.52,2.67,2.67,0,0,1,3-1.38c2.12.5,2.89,2.85,3.36,4.72a51.92,51.92,0,0,1,1.48,7.61c.24,2.52.33,6.13-1.44,8.18A3.3,3.3,0,0,1,380.31,196.27Z" style="fill:#FF725E"></path><path d="M379.26,194.68l-.08,0c-.63-.28-.54-2.42-.49-3.45,0-.34,0-.66,0-.94s0-.71,0-1.06a26.92,26.92,0,0,0-.22-5,18.09,18.09,0,0,0-1.09-3.61,18.13,18.13,0,0,1-.76-2.21,2.1,2.1,0,0,1-.07-1.31.76.76,0,0,1,.69-.35.64.64,0,0,1,.2,0c.84.2,1.46,1.23,2,3.36a50.06,50.06,0,0,1,1.43,7.33c.31,3.38,0,5.66-1,6.79a1.21,1.21,0,0,1-.42.34A.61.61,0,0,1,379.26,194.68Z" style="opacity:0.2"></path><path d="M363.16,162a3.66,3.66,0,0,1,.8-.16,7.62,7.62,0,0,1,4.26,1.3,23.5,23.5,0,0,1,7,5.67,10.28,10.28,0,0,1,2,4.69c.26,2-1.25,3.38-3.19,2.35-3.47-1.84-5.91-5.43-9.38-7.4a15,15,0,0,1-2.37-1.44,3.28,3.28,0,0,1-1.29-2.35A3,3,0,0,1,363.16,162Z" style="fill:#FF725E"></path><path d="M375.29,174.32a1.2,1.2,0,0,1-.41-.14,22.21,22.21,0,0,1-4.39-3.46,26.58,26.58,0,0,0-4.95-3.91l-.6-.33a9.68,9.68,0,0,1-1.48-.93,1.51,1.51,0,0,1-.63-1c0-.3.41-.7.91-.86a1.76,1.76,0,0,1,.37-.08h.21a6.66,6.66,0,0,1,3,1.06,21.26,21.26,0,0,1,6.47,5.19,8.48,8.48,0,0,1,1.59,3.8A1,1,0,0,1,375.29,174.32Z" style="opacity:0.2"></path><path d="M346.52,132.55a2.16,2.16,0,0,1,0,1.89c-1,2.06-4.34,1.45-6.15,1.38a33.11,33.11,0,0,0-5.72,0c-2,.26-3.77,1.21-5.71,1.64a3.94,3.94,0,0,1-2.52-.11,2.65,2.65,0,0,1-1.29-3.06c.58-2.11,2.95-2.81,4.82-3.21a51.17,51.17,0,0,1,7.66-1.25c2.53-.15,6.14-.13,8.13,1.7A3.25,3.25,0,0,1,346.52,132.55Z" style="fill:#FF725E"></path><path d="M326.93,135a1.24,1.24,0,0,1,0-.27c.23-.83,1.28-1.41,3.42-1.88a49.94,49.94,0,0,1,7.37-1.2c3.39-.21,5.66.2,6.76,1.21a1.27,1.27,0,0,1,.32.43.52.52,0,0,1,.06.21c-.32.71-2.45.56-3.47.48l-.95-.06-1.06-.05a27.59,27.59,0,0,0-5,.06,19,19,0,0,0-3.64,1,18.32,18.32,0,0,1-2.24.69,2.11,2.11,0,0,1-1.3,0A.75.75,0,0,1,326.93,135Z" style="opacity:0.2"></path><path d="M265.86,216.39a2.15,2.15,0,0,1-1.6-1c-1.18-2,1.16-4.42,2.21-5.9a33.63,33.63,0,0,0,3.12-4.79c.86-1.8,1.05-3.82,1.75-5.68a3.92,3.92,0,0,1,1.46-2,2.64,2.64,0,0,1,3.27.6c1.45,1.62.74,4,.06,5.79a52.16,52.16,0,0,1-3.14,7.09c-1.25,2.2-3.24,5.21-5.87,5.88A3.16,3.16,0,0,1,265.86,216.39Z" style="fill:#FF725E"></path><path d="M274.47,198.62a1.2,1.2,0,0,1,.21.17c.58.65.49,1.85-.29,3.89a50.28,50.28,0,0,1-3,6.84c-1.67,2.95-3.26,4.63-4.7,5a1.26,1.26,0,0,1-.54,0,.53.53,0,0,1-.21-.06c-.42-.66.87-2.36,1.5-3.17.2-.28.4-.53.56-.77l.62-.85a27.52,27.52,0,0,0,2.67-4.2,18.48,18.48,0,0,0,1.16-3.59,19.25,19.25,0,0,1,.65-2.25,2.19,2.19,0,0,1,.68-1.11A.75.75,0,0,1,274.47,198.62Z" style="opacity:0.2"></path><path d="M292.28,316.44a2.17,2.17,0,0,1-.88,1.68c-1.86,1.33-4.5-.8-6.06-1.73a34.27,34.27,0,0,0-5-2.72c-1.87-.72-3.9-.74-5.81-1.28a3.88,3.88,0,0,1-2.16-1.29,2.65,2.65,0,0,1,.33-3.31c1.5-1.58,3.92-1.06,5.77-.53a52.45,52.45,0,0,1,7.32,2.56c2.3,1.07,5.46,2.8,6.34,5.37A3.32,3.32,0,0,1,292.28,316.44Z" style="fill:#FF725E"></path><path d="M290.37,316.55a.13.13,0,0,1-.05.06c-.56.4-2.36-.76-3.23-1.31-.28-.19-.55-.36-.8-.5l-.91-.55a27,27,0,0,0-4.4-2.32,18.82,18.82,0,0,0-3.66-.87,18.71,18.71,0,0,1-2.3-.46,2.18,2.18,0,0,1-1.16-.59.77.77,0,0,1,0-.77,1.09,1.09,0,0,1,.13-.17c.59-.63,1.8-.63,3.9,0A50.12,50.12,0,0,1,285,311.5c3.08,1.44,4.88,2.88,5.37,4.29a1.46,1.46,0,0,1,.08.53A.58.58,0,0,1,290.37,316.55Z" style="opacity:0.2"></path><path d="M225.1,210a2.18,2.18,0,0,1-1.88.24c-2.16-.76-1.94-4.14-2.07-5.95a34.93,34.93,0,0,0-.66-5.68c-.49-1.94-1.64-3.61-2.3-5.49a3.85,3.85,0,0,1-.18-2.5A2.64,2.64,0,0,1,220.9,189c2.16.33,3.13,2.6,3.75,4.42a50.75,50.75,0,0,1,2.12,7.46c.45,2.49.85,6.08-.75,8.27A3.31,3.31,0,0,1,225.1,210Z" style="fill:#FF725E"></path><path d="M223.91,208.47a.06.06,0,0,1-.07,0c-.66-.23-.75-2.36-.79-3.39,0-.34,0-.66-.05-.94s-.05-.71-.07-1.06a27.31,27.31,0,0,0-.64-4.93,18,18,0,0,0-1.4-3.5,18.75,18.75,0,0,1-.94-2.15,2.14,2.14,0,0,1-.18-1.29.75.75,0,0,1,.65-.41h.21c.86.13,1.55,1.11,2.26,3.18a49.39,49.39,0,0,1,2.05,7.19c.6,3.33.46,5.64-.42,6.85a1.51,1.51,0,0,1-.39.37A.46.46,0,0,1,223.91,208.47Z" style="opacity:0.2"></path><path d="M400.87,203.89a2.16,2.16,0,0,1,1.86.36c1.81,1.4.53,4.54.09,6.3a33.37,33.37,0,0,0-1.17,5.6c-.15,2,.41,3.94.44,5.93a3.86,3.86,0,0,1-.62,2.43,2.63,2.63,0,0,1-3.26.64c-1.95-1-2.15-3.45-2.16-5.37a51.44,51.44,0,0,1,.34-7.75c.37-2.51,1.12-6,3.33-7.61A3.09,3.09,0,0,1,400.87,203.89Z" style="fill:#FF725E"></path><path d="M401.52,205.69l.07,0c.55.42,0,2.48-.33,3.47-.09.33-.18.63-.25.91s-.17.68-.26,1a27.2,27.2,0,0,0-1,4.88,18.47,18.47,0,0,0,.22,3.76,19.84,19.84,0,0,1,.22,2.33,2.06,2.06,0,0,1-.24,1.28.73.73,0,0,1-.75.18.62.62,0,0,1-.19-.07c-.77-.39-1.13-1.54-1.14-3.73a49.91,49.91,0,0,1,.32-7.46c.49-3.36,1.35-5.5,2.57-6.37a1.46,1.46,0,0,1,.49-.23A.46.46,0,0,1,401.52,205.69Z" style="opacity:0.2"></path><path d="M218.88,245.83a2.15,2.15,0,0,1,1.86.36c1.81,1.4.53,4.54.09,6.3a33.58,33.58,0,0,0-1.17,5.6c-.15,2,.42,3.94.44,5.93a3.84,3.84,0,0,1-.61,2.44,2.65,2.65,0,0,1-3.27.63c-1.94-1-2.14-3.45-2.16-5.37a51.45,51.45,0,0,1,.35-7.75c.36-2.51,1.12-6,3.32-7.61A3.43,3.43,0,0,1,218.88,245.83Z" style="fill:#FF725E"></path><path d="M219.54,247.63s0,0,.06,0c.55.43,0,2.48-.32,3.47-.1.33-.18.64-.25.91l-.27,1a27.37,27.37,0,0,0-.95,4.88,17.74,17.74,0,0,0,.22,3.76,22.07,22.07,0,0,1,.21,2.34,2.11,2.11,0,0,1-.23,1.28.78.78,0,0,1-.75.18l-.2-.07c-.77-.4-1.12-1.55-1.14-3.73a51.45,51.45,0,0,1,.33-7.47c.49-3.36,1.35-5.5,2.56-6.37a1.55,1.55,0,0,1,.49-.23A.67.67,0,0,1,219.54,247.63Z" style="opacity:0.2"></path><path d="M369.78,287a2.2,2.2,0,0,1,.56,1.81c-.38,2.26-3.75,2.61-5.52,3.06a33.75,33.75,0,0,0-5.48,1.61c-1.83.81-3.28,2.23-5,3.19a3.79,3.79,0,0,1-2.43.61,2.65,2.65,0,0,1-2.11-2.57c0-2.19,2-3.53,3.72-4.45a51.54,51.54,0,0,1,7-3.35c2.38-.87,5.85-1.87,8.28-.67A3.44,3.44,0,0,1,369.78,287Z" style="fill:#FF725E"></path><path d="M368.5,288.39a.11.11,0,0,1,0,.08c-.11.68-2.2,1.13-3.21,1.35l-.92.21-1,.25a27.56,27.56,0,0,0-4.75,1.46,18.09,18.09,0,0,0-3.21,2,19.52,19.52,0,0,1-2,1.3,2.16,2.16,0,0,1-1.24.4.87.87,0,0,1-.54-.79c0-.86.83-1.72,2.75-2.76a49.36,49.36,0,0,1,6.73-3.25c3.19-1.15,5.49-1.4,6.82-.74a1.35,1.35,0,0,1,.44.32A.48.48,0,0,1,368.5,288.39Z" style="opacity:0.2"></path><path d="M257.88,130.7a3.68,3.68,0,0,1,.8-.17,7.53,7.53,0,0,1,4.26,1.31,23.47,23.47,0,0,1,7,5.66,10.32,10.32,0,0,1,2,4.7c.26,2-1.25,3.37-3.19,2.35-3.47-1.85-5.91-5.43-9.38-7.4A14.93,14.93,0,0,1,257,135.7a3.29,3.29,0,0,1-1.3-2.35A3,3,0,0,1,257.88,130.7Z" style="fill:#FF725E"></path><path d="M270,143a1,1,0,0,1-.4-.14,21.9,21.9,0,0,1-4.4-3.46,26.58,26.58,0,0,0-4.95-3.91l-.59-.33a9.32,9.32,0,0,1-1.49-.92,1.53,1.53,0,0,1-.63-1c0-.3.41-.69.91-.86a1.72,1.72,0,0,1,.37-.07H259a6.55,6.55,0,0,1,3,1.07,21,21,0,0,1,6.47,5.19,8.53,8.53,0,0,1,1.6,3.79A1,1,0,0,1,270,143Z" style="opacity:0.2"></path><path d="M348.3,175.59a2.92,2.92,0,0,1,1.57,2.18c0,.35,0,.7.08,1a2.63,2.63,0,0,0,2.65,1.68c1.5,0,4.73-1,5.38,1.14a2.47,2.47,0,0,1-1.16,2.45c-1.13.87-2.57,1.55-2.6,3.18,0,1.46,2.09,2.45.38,3.85a22.12,22.12,0,0,1-2.41,1.28,13.46,13.46,0,0,0-2.33,2.26A3.6,3.6,0,0,1,347,196a4.41,4.41,0,0,1-2.19-1.18l-7.44-6.13c-1-.79-2-2.15-1.19-3.1a2,2,0,0,1,2.26-.2,8.38,8.38,0,0,0,2.22,1,2.34,2.34,0,0,0,2.49-1.68,6.16,6.16,0,0,0-.34-2.83,6.42,6.42,0,0,1,.41-4.32,4.2,4.2,0,0,1,3.52-2.33A3.21,3.21,0,0,1,348.3,175.59Z" style="fill:#FF725E"></path><path d="M347.25,193.68h-.13c-1.6,0-3.95-2-5.08-3a3.32,3.32,0,0,1-1-1.37c-.68-2.1,3.94-3.78,4.12-6.25.13-1.64-1.18-3.49-.14-5,2-3,3.18,1.63,4.07,2.66s6.41,1.59,5.26,3.39a7.76,7.76,0,0,1-1.11,1.11c-1,1.05-.32,2.58-.54,3.84-.18,1.08-.29.92-1.22,1.74S348.83,193.55,347.25,193.68Z" style="opacity:0.2"></path><g style="opacity:0.5"><path d="M346.46,187.55a1.68,1.68,0,1,0,1.68,1.68A1.68,1.68,0,0,0,346.46,187.55Z" style="fill:#fff"></path><path d="M350.92,183.6a.89.89,0,1,0,.88.89A.89.89,0,0,0,350.92,183.6Z" style="fill:#fff"></path><path d="M346.51,180a.72.72,0,1,0-.71-.72A.71.71,0,0,0,346.51,180Z" style="fill:#fff"></path><path d="M347.56,183.05a.58.58,0,1,0,.58.58A.58.58,0,0,0,347.56,183.05Z" style="fill:#fff"></path><circle cx="349.7" cy="186.5" r="0.32" style="fill:#fff"></circle><circle cx="343.97" cy="188.85" r="0.38" style="fill:#fff"></circle><circle cx="349.91" cy="189.75" r="0.52" style="fill:#fff"></circle></g><path d="M258.19,157.67c-.4-.74-1.44-1.18-3.22-1.55-1.6-.32-2.85-2-4.31-2.12-1.72-.1-1.69,1.38-2.72,2.23-1.69,1.41-4.26,1-4.84,3.23-.44,1.67,1.14,3,.15,4.67s-3.33,2.79-3.43,4.75c-.15,2.71,3.57,5,5.84,3.45,3.12-2.12,6.21,1.34,9.35.33,4.23-1.37,3.6-5.75,1.86-8.48-.5-.78,0-1.78.46-2.61C258.3,159.7,258.65,158.5,258.19,157.67Z" style="fill:#FF725E"></path><path d="M253.75,170.81a8.73,8.73,0,0,1-1.31-.05c-2.49-.26-4.2-1.45-6.73-.45a4,4,0,0,1-2.79.34c-3.08-1.14,2-5.38,2.11-7.22.09-2.44-.09-4.09,2.1-5.47,1.63-1,4.31-1.91,6.24-1.44,4.3,1.06,2.15,4.11,1.79,6.92C254.86,165.85,257.86,170.66,253.75,170.81Z" style="opacity:0.2"></path><circle cx="250.76" cy="164.05" r="1.78" style="fill:#fff;opacity:0.5"></circle><circle cx="247.21" cy="167.86" r="0.65" style="fill:#fff;opacity:0.5"></circle><circle cx="252.4" cy="168.98" r="0.55" style="fill:#fff;opacity:0.5"></circle><path d="M253.41,160.29a.78.78,0,1,1-.78-.78A.78.78,0,0,1,253.41,160.29Z" style="fill:#fff;opacity:0.5"></path><circle cx="249.2" cy="161.11" r="0.23" style="fill:#fff;opacity:0.5"></circle><path d="M247.44,165.68a.88.88,0,1,1-.87-.87A.87.87,0,0,1,247.44,165.68Z" style="fill:#fff;opacity:0.5"></path><path d="M250.82,167.59a.92.92,0,1,1-.92-.93A.92.92,0,0,1,250.82,167.59Z" style="fill:#fff;opacity:0.5"></path><path d="M245.52,168.9a.47.47,0,1,1-.47-.47A.47.47,0,0,1,245.52,168.9Z" style="fill:#fff;opacity:0.5"></path><path d="M251.5,159a1.26,1.26,0,1,1-1.26-1.26A1.26,1.26,0,0,1,251.5,159Z" style="fill:#fff;opacity:0.5"></path><path d="M277.67,279.72c-.51-.18-1.1-.26-1.62-.41-2.89-.81-2.54-3.38-4.4-5-2.31-2.06-5.09.52-7.48,1-2.09.4-3.9-.54-2.94,2.54.27.87.21,2.12-.67,2.3a2.24,2.24,0,0,1-1-.13c-3.39-.84-7.11,4.22-4.35,6.9,1.75,1.71,4.1.43,6.18.78a3.8,3.8,0,0,1,3,2.24c.22.61.21,1.28.4,1.91.87,2.83,5,2.62,7.17,1.7a2.61,2.61,0,0,0,1.64-1.91c.26-1.95-1.23-2.94-.14-4.83.79-1.37,2.89-2.08,4-3.12.89-.81,1.84-2.05,1.24-3.11A1.89,1.89,0,0,0,277.67,279.72Z" style="fill:#FF725E"></path><path d="M268.83,292.34a2.46,2.46,0,0,1-1.69-.36c-1-.82-.8-2.75-1.56-3.85a5.91,5.91,0,0,0-3.88-2.32,6.76,6.76,0,0,0-1.14-.09c-.57,0-1.11.06-1.63.11a11.14,11.14,0,0,1-1.22.09,1.46,1.46,0,0,1-1.19-.38c-2.17-2.1,1.64-3.34,3.17-3.62,1.25-.24,1.95.13,2.77-1.1.68-1,.26-2.51,1.12-3.49,1.12-1.29,4.42-2,6.05-2a1.07,1.07,0,0,1,.79.32,5.23,5.23,0,0,1,1.06,1.63,7.65,7.65,0,0,0,3.2,3c3.52,2.22-1.61,3.5-2.8,5.56-1,1.76,1.14,4.77-.93,6a4.28,4.28,0,0,1-2,.48Z" style="opacity:0.2"></path><g style="opacity:0.5"><path d="M267.79,277.81a2.64,2.64,0,1,0,2.64,2.64A2.64,2.64,0,0,0,267.79,277.81Z" style="fill:#fff"></path><circle cx="268.57" cy="285.73" r="0.78" style="fill:#fff"></circle><path d="M269.77,290a.31.31,0,1,0,.31.31A.31.31,0,0,0,269.77,290Z" style="fill:#fff"></path><path d="M258.18,283.81a.57.57,0,0,0-.57.57.58.58,0,0,0,.57.57.57.57,0,0,0,.57-.57A.56.56,0,0,0,258.18,283.81Z" style="fill:#fff"></path><path d="M263.82,283.09a1.33,1.33,0,1,0,1.33,1.33A1.32,1.32,0,0,0,263.82,283.09Z" style="fill:#fff"></path><path d="M273.1,281.33a.68.68,0,1,0,.68.68A.68.68,0,0,0,273.1,281.33Z" style="fill:#fff"></path><path d="M268.43,287.76a.64.64,0,1,0,.64.64A.64.64,0,0,0,268.43,287.76Z" style="fill:#fff"></path></g></g><g id="freepik--Plant--inject-238"><path d="M389.13,371.6s-7.75-9.23-12.72-4.93-2.45,13.44,3.27,13.73a14.34,14.34,0,0,0,9.45-2.88Z" style="fill:#FF725E"></path><path d="M389.13,371.6s-7.75-9.23-12.72-4.93-2.45,13.44,3.27,13.73a14.34,14.34,0,0,0,9.45-2.88Z" style="fill:#fff;isolation:isolate;opacity:0.2"></path><path d="M420.76,348.2s6.51-6.83,10.54-5.67,3.62,17.46-8.89,10.86Z" style="fill:#FF725E"></path><path d="M420.76,348.2s6.51-6.83,10.54-5.67,3.62,17.46-8.89,10.86Z" style="fill:#fff;isolation:isolate;opacity:0.30000000000000004"></path><path d="M397.5,399.09s-21.4-29.28-4-35.21,20.47,23.56,15.51,31.76S397.5,399.09,397.5,399.09Z" style="fill:#FF725E"></path><path d="M407.43,339.15S420.7,308.33,401,307.4s-21.81,30.56.82,35.13Z" style="fill:#FF725E"></path><path d="M397.5,399.09s-21.4-29.28-4-35.21,20.47,23.56,15.51,31.76S397.5,399.09,397.5,399.09Z" style="fill:#fff;isolation:isolate;opacity:0.30000000000000004"></path><path d="M407.43,339.15S420.7,308.33,401,307.4s-21.81,30.56.82,35.13Z" style="fill:#fff;isolation:isolate;opacity:0.30000000000000004"></path><path d="M402.72,364.39s-6.46-27.22,5.95-29.39,24.65,22.42-1,34.78C407.66,369.78,403.25,367.05,402.72,364.39Z" style="fill:#FF725E"></path><path d="M402.72,364.39s-6.46-27.22,5.95-29.39,24.65,22.42-1,34.78C407.66,369.78,403.25,367.05,402.72,364.39Z" style="fill:#fff;isolation:isolate;opacity:0.2"></path><polygon points="382.1 394.94 418.02 394.94 415.02 417.92 385.1 417.92 382.1 394.94" style="fill:#263238"></polygon><path d="M400.78,337a26,26,0,0,1-8.49-11,18.44,18.44,0,0,1-1.28-6.93,16.43,16.43,0,0,1,1.61-6.78c-.13.57-.25,1.13-.39,1.69l-.21.83c0,.29,0,.57-.08.86-.06.56-.15,1.13-.19,1.69l0,1.7a21.26,21.26,0,0,0,1.44,6.58,33.52,33.52,0,0,0,5.27,8.73A33.11,33.11,0,0,0,400.78,337Z" style="fill:#FF725E"></path><path d="M396.07,310.5a12.52,12.52,0,0,1,3.22,1.1,15.67,15.67,0,0,1,2.84,1.94,15,15,0,0,1,4,5.59,19.81,19.81,0,0,1,1.38,6.72c0,1.14-.07,2.28-.11,3.41-.2,1.12-.36,2.24-.58,3.34,0-1.13.06-2.25.09-3.37s-.06-2.23-.17-3.33a26.9,26.9,0,0,0-.56-3.25c-.14-.53-.23-1.08-.4-1.6l-.57-1.53A16.19,16.19,0,0,0,396.07,310.5Z" style="fill:#FF725E"></path><path d="M411.11,337a11.7,11.7,0,0,1,6.52,6.26,14.39,14.39,0,0,1,1.22,4.5,5.77,5.77,0,0,1,.06,1.18,9.46,9.46,0,0,1,0,1.19,12.79,12.79,0,0,1-.47,2.31,19.65,19.65,0,0,1-1.88,4.27,29.37,29.37,0,0,1-2.7,3.74,37.61,37.61,0,0,1-6.65,6.27c1.1-1.05,2.17-2.13,3.16-3.27a40.09,40.09,0,0,0,2.89-3.48,24.72,24.72,0,0,0,4.22-7.81,12.08,12.08,0,0,0,.46-2.13,9.75,9.75,0,0,0,0-1.08,6.67,6.67,0,0,0,0-1.09,15.11,15.11,0,0,0-1-4.3,12.29,12.29,0,0,0-2.3-3.77A11.49,11.49,0,0,0,411.11,337Z" style="fill:#FF725E"></path><path d="M407.43,339.15a24.94,24.94,0,0,1,1.37,6.24,15.27,15.27,0,0,1,0,3.24,7.61,7.61,0,0,1-1,3.19,12.07,12.07,0,0,0-1.81,5.77,27.11,27.11,0,0,0-.15,3.13c0,1,0,2.1.07,3.16a24,24,0,0,1-.69-6.34,15.43,15.43,0,0,1,.4-3.23,10,10,0,0,1,.54-1.57,11,11,0,0,1,.79-1.45,6.88,6.88,0,0,0,.93-2.79,18.47,18.47,0,0,0,.2-3.08,30.06,30.06,0,0,0-.2-3.13C407.75,341.24,407.59,340.2,407.43,339.15Z" style="fill:#FF725E"></path><path d="M398.7,366.67a3,3,0,0,1,1.33,1,10.6,10.6,0,0,1,1,1.41,23.45,23.45,0,0,1,1.34,3.09,48.4,48.4,0,0,1,1.78,6.47,66.64,66.64,0,0,1,1.05,6.6,43.86,43.86,0,0,1,.35,6.68c-.15-1.1-.32-2.2-.53-3.29s-.37-2.19-.58-3.27c-.41-2.18-.8-4.36-1.27-6.52s-.95-4.31-1.52-6.44a27.77,27.77,0,0,0-1.06-3.11,10.47,10.47,0,0,0-.73-1.46A3.25,3.25,0,0,0,398.7,366.67Z" style="fill:#FF725E"></path><path d="M392.62,367.62a28.21,28.21,0,0,0-1,6.07,23,23,0,0,0,.44,6,20,20,0,0,0,2,5.7,29.39,29.39,0,0,0,3.43,5.1c-.39-.34-.77-.69-1.15-1a11.63,11.63,0,0,1-1.1-1.12,16.56,16.56,0,0,1-1.86-2.54A18.77,18.77,0,0,1,392,383c-.21-.49-.33-1-.5-1.51a10.66,10.66,0,0,1-.39-1.55,19.4,19.4,0,0,1-.24-6.31A18.6,18.6,0,0,1,392.62,367.62Z" style="fill:#FF725E"></path><path d="M425.81,351.52a28.53,28.53,0,0,0,3.19-1,9.22,9.22,0,0,0,1.38-.75,12.09,12.09,0,0,0,1.31-1.07,3.2,3.2,0,0,1-.78,1.65,4.43,4.43,0,0,1-1.52,1.09,5.38,5.38,0,0,1-1.8.39A4.2,4.2,0,0,1,425.81,351.52Z" style="fill:#FF725E"></path><path d="M424.48,347a4.34,4.34,0,0,1,1.19-1.4,4.83,4.83,0,0,1,1.65-.87,3.55,3.55,0,0,1,1.94,0,2.66,2.66,0,0,1,1.5,1.13,5.87,5.87,0,0,0-1.63-.36,5,5,0,0,0-1.53.21,9.86,9.86,0,0,0-1.53.57Z" style="fill:#FF725E"></path><path d="M385.59,373a35.56,35.56,0,0,0-3.95-2.85,5.51,5.51,0,0,0-2.11-.78,4,4,0,0,0-2.26.43,3,3,0,0,1,2.29-1.21,4.69,4.69,0,0,1,2.58.69,8.77,8.77,0,0,1,2,1.62A8.42,8.42,0,0,1,385.59,373Z" style="fill:#FF725E"></path><path d="M385.59,377.52a11.21,11.21,0,0,1-2.92.64,12.68,12.68,0,0,1-3-.09,6.48,6.48,0,0,1-2.87-1.17,3.33,3.33,0,0,1-1.4-2.67,4.19,4.19,0,0,0,1.83,2,8.13,8.13,0,0,0,2.61.82A50.58,50.58,0,0,0,385.59,377.52Z" style="fill:#FF725E"></path></g><g id="freepik--Box--inject-238"><polygon points="346.87 417.9 346.87 385.13 319.55 382.4 290.19 384.59 292.96 417.9 346.87 417.9" style="fill:#263238"></polygon><polygon points="346.87 417.9 346.87 385.13 315.27 387.17 316.06 417.9 346.87 417.9" style="fill:#fff;isolation:isolate;opacity:0.5"></polygon><polygon points="316.06 417.9 315.27 387.17 290.19 384.59 292.96 417.9 316.06 417.9" style="fill:#fff;isolation:isolate;opacity:0.30000000000000004"></polygon><polygon points="315.27 387.17 327.37 392.85 357.96 390.01 346.87 385.13 315.27 387.17" style="fill:#263238"></polygon><polygon points="315.27 387.17 327.37 392.85 357.96 390.01 346.87 385.13 315.27 387.17" style="fill:#fff;isolation:isolate;opacity:0.6000000000000001"></polygon><polygon points="315.27 387.17 304.25 393.23 281.29 389.21 290.19 384.59 315.27 387.17" style="fill:#263238"></polygon><polygon points="315.27 387.17 304.25 393.23 281.29 389.21 290.19 384.59 315.27 387.17" style="fill:#fff;isolation:isolate;opacity:0.5"></polygon><path d="M313.22,387l-2.32-.24-1.66-.16-10.55-1.08-8.5-19.25s3.4-5.64,9.19-3.83l2.36,5.64,2.36-3.63Z" style="fill:#FF725E"></path><polygon points="341.34 374.56 340.26 380.4 339.3 385.62 321.49 386.77 321.56 386.21 323.81 369.55 341.34 374.56" style="fill:#FF725E"></polygon><path d="M313.22,387l-2.32-.24-1.66-.16-10.55-1.08-8.5-19.25s3.4-5.64,9.19-3.83l2.36,5.64,2.36-3.63Z" style="fill:#fff;isolation:isolate;opacity:0.5"></path><polygon points="341.34 374.56 340.26 380.4 339.3 385.62 321.49 386.77 321.56 386.21 323.81 369.55 341.34 374.56" style="fill:#fff;isolation:isolate;opacity:0.5"></polygon><path d="M310.9,386.71l-1.66-.16L301.74,368l2.36-3.63A145.31,145.31,0,0,1,310.9,386.71Z" style="opacity:0.2"></path><path d="M340.26,380.4l-1,5.21-17.81,1.16.07-.56C324,385.05,333.55,380.58,340.26,380.4Z" style="opacity:0.2"></path></g><g id="freepik--Books--inject-238"><path d="M299.57,411v6h1v1H256a3.95,3.95,0,0,1-2.79-6.73A4,4,0,0,1,256,410h44.58v1Z" style="fill:#FF725E"></path><path d="M299.57,411v6h1v1H278a3.94,3.94,0,1,1,0-7.88h22.51v1Z" style="fill:#fff;isolation:isolate;opacity:0.30000000000000004"></path><path d="M299.57,411v6H278a3,3,0,0,1-3-3,2.94,2.94,0,0,1,3-3Z" style="fill:#fff;isolation:isolate;opacity:0.7000000000000001"></path><path d="M304.36,403.11v6h1v1H260.75a3.95,3.95,0,1,1,0-7.89h44.57v1Z" style="fill:#263238"></path><path d="M304.36,403.11v6h1v1H282.81a3.95,3.95,0,1,1,0-7.89h22.51v1Z" style="fill:#fff;isolation:isolate;opacity:0.30000000000000004"></path><path d="M304.36,403.11v6H282.81a3,3,0,1,1,0-6Z" style="fill:#fff;isolation:isolate;opacity:0.7000000000000001"></path><path d="M298.33,395.22v6h1v1H254.72a3.95,3.95,0,0,1,0-7.89H299.3v1Z" style="fill:#FF725E"></path><path d="M298.33,395.22v6h1v1H276.79a3.94,3.94,0,0,1-2.79-6.73,3.89,3.89,0,0,1,2.79-1.16H299.3v1Z" style="fill:#fff;isolation:isolate;opacity:0.30000000000000004"></path><path d="M298.33,395.22v6H276.79a3,3,0,0,1-2.12-5.1,3,3,0,0,1,2.12-.87Z" style="fill:#fff;isolation:isolate;opacity:0.7000000000000001"></path></g><g id="freepik--Character--inject-238"><path d="M180.13,283.32l9.29-2.82-3.73-7.63s-6.77,1.06-8,6.59Z" style="fill:#ce7a63"></path><polygon points="194.32 275.62 190.18 270.61 185.69 272.88 189.42 280.5 194.32 275.62" style="fill:#ce7a63"></polygon><path d="M170.49,220.28c-3.3-1.54-10.09-.88-13,6.5s.08,16.58-.8,25.7-2.61,12.79,1.35,14.77,4.9-2.33,7.86-1.62,8.86,3.35,10.13-1.27.28-5.27,3.67-6.06,4.08-7.65,3.28-10.68,4.74-5-.27-15.43S170.49,220.28,170.49,220.28Z" style="fill:#263238"></path><path d="M160.73,255.4c3.1,3.35,1.09,22.87,3.36,23.41s14.78-2.3,14.78-2.3l1.87,8.1s-19.5,6.92-23.49,5.33-6.72-20.53-6.72-20.53Z" style="fill:#FF725E"></path><path d="M180.74,284.61s-19.5,6.92-23.49,5.34c-1.28-.52-2.42-2.76-3.39-5.59a99.47,99.47,0,0,1-3.33-14.95l4-5.48,6.21-8.53c3.1,3.35,1.09,22.87,3.36,23.41s14.78-2.31,14.78-2.31Z" style="fill:#fff;opacity:0.6000000000000001"></path><path d="M158.85,262.59s-.11,12.59-5,21.77a99.47,99.47,0,0,1-3.33-14.95l4-5.48A13.51,13.51,0,0,1,158.85,262.59Z" style="opacity:0.2"></path><path d="M157.63,250.66s4.44,12.12-14.44,43.5c-2.22,3.69-3.89,16.22-3.89,16.22l-18.67-12.59S135.14,253.7,157.63,250.66Z" style="fill:#FF725E"></path><path d="M157.63,250.66s4.44,12.12-14.44,43.5c-2.22,3.69-3.89,16.22-3.89,16.22l-18.67-12.59S135.14,253.7,157.63,250.66Z" style="fill:#fff;opacity:0.7000000000000001"></path><path d="M157.63,250.66s4.44,12.12-14.44,43.5c-2.22,3.69-3.89,16.22-3.89,16.22l-18.67-12.59S135.14,253.7,157.63,250.66Z" style="opacity:0.4"></path><path d="M165.86,417.92c-5.51,0-6.23-.09-9.32-.19-2.65-.09-3.29.24-5.41.19-1.78,0-1.72-1.74-1.17-3.7.28-1,.7-3.06,1.08-4.65l8.06-.58c1.14,2.16,3.7,5.25,6.8,5.67S168.05,417.92,165.86,417.92Z" style="fill:#263238"></path><path d="M131,268.07s7.13,45.35,10.05,67.33c3.06,23.09,13,58.66,18.07,72.85-1,1.08-5.66,1.89-8.32,1.84,0,0-28.52-43.09-24.15-68.11-21.91-49.07-15.49-64.54-15.49-64.54Z" style="fill:#263238"></path><path d="M159.07,408.25c-1,1.08-5.65,1.89-8.31,1.85,0,0-28.52-43.1-24.15-68.12-2.34-5.25-4.36-10.11-6.1-14.61-7.1-18.38-9.51-30.72-10.11-38.53-.63-8.17.71-11.39.71-11.39L131,268.07s7.14,45.35,10.05,67.33C144.06,358.49,154,394.06,159.07,408.25Z" style="fill:#fff;opacity:0.6000000000000001"></path><path d="M157.61,402c.53,1.25,1.48,3.4,2.37,5a1.19,1.19,0,0,1-.08,1.49c-2.94,2.13-8.15,2.86-9.82,3.05a1,1,0,0,1-.91-.66l-2.41-4.58c-.33-.63-.24-1.35.2-1.51l9.56-3.52C156.9,401.15,157.37,401.48,157.61,402Z" style="fill:#FF725E"></path><path d="M120.51,327.37c-7.1-18.38-9.51-30.72-10.11-38.53,4-1.36,6.94-2.1,6.94-2.1S123.85,301.13,120.51,327.37Z" style="opacity:0.2"></path><path d="M118.83,417.92c-5.5,0-6.23-.09-9.32-.19-2.65-.09-3.29.24-5.41.19-1.78,0-1.72-1.74-1.17-3.7.28-1,.7-3.06,1.08-4.65l8.06-.58c1.14,2.16,3.7,5.25,6.8,5.67S121,417.92,118.83,417.92Z" style="fill:#263238"></path><path d="M124.67,267.25s-5.88,45.54-9.26,67.45c-3.54,23-4,59.95-3.1,75-1.29.74-6,.22-8.5-.57,0,0-15.28-49.37-4.06-72.15-7.26-53.25,3.25-66.29,3.25-66.29Z" style="fill:#263238"></path><path d="M124.67,267.25s-5.88,45.54-9.26,67.45c-3.54,23-4,59.95-3.1,75-1.29.74-6,.22-8.5-.57,0,0-15.28-49.37-4.06-72.15-7.26-53.25,3.25-66.29,3.25-66.29Z" style="fill:#fff;opacity:0.6000000000000001"></path><path d="M112.65,403.33c.16,1.34.47,3.68.87,5.44a1.18,1.18,0,0,1-.49,1.41c-3.42,1.22-8.63.46-10.28.17a1,1,0,0,1-.69-.89l-1-5.07c-.14-.7.16-1.36.62-1.39l10.17-.7C112.21,402.27,112.58,402.72,112.65,403.33Z" style="fill:#FF725E"></path><path d="M156.17,267.85c-4.81,6-23.44,11.66-23.44,11.66l-22.28-13.2c6.71-5,13.27-12,24-28.41a6.93,6.93,0,0,1,10.68-1.43c.86.81,1.76,1.69,2.64,2.61a93.69,93.69,0,0,1,8.85,10.19c.86,1.19,1.72,2.46,2.52,3.69C162,257.39,159.44,263.76,156.17,267.85Z" style="fill:#FF725E"></path><path d="M111.59,265.44l23.06,14.07-.8,7.23-33.4-10.42A23.09,23.09,0,0,1,111.59,265.44Z" style="fill:#263238"></path><path d="M111.59,265.44l23.06,14.07-.8,7.23-33.4-10.42A23.09,23.09,0,0,1,111.59,265.44Z" style="fill:#fff;opacity:0.6000000000000001"></path><path d="M157.63,250.66s4,4.56,3.8,6.76c-.57,5.85-18.55,37.49-18.55,37.49S153.61,269.23,157.63,250.66Z" style="fill:#FF725E"></path><path d="M161.43,257.42c-.17,1.73-1.85,5.69-4.13,10.43-1.07,2.21-2.27,4.6-3.51,7h0c-5,9.61-10.57,19.51-10.88,20,.18-.43,3.37-8.12,6.87-18a.64.64,0,0,0,0-.07,1,1,0,0,0,.08-.23c.17-.46.34-.92.5-1.39.89-2.54,1.79-5.21,2.66-7.91,1.81-5.63,3.47-11.42,4.6-16.65,0,0,.39.44.92,1.12C159.72,253.27,161.58,255.91,161.43,257.42Z" style="fill:#fff;opacity:0.7000000000000001"></path><path d="M157.44,249.57a10.06,10.06,0,0,1,1.63,6.88l-2,1,.43,5.1s-4.38,9.64-7.78,14.44C149.75,277,156.33,256.51,157.44,249.57Z" style="fill:#FF725E"></path><path d="M159.07,256.45l-2,1,.43,5.1s-1,2.22-2.42,5.05c-1.22,2.41-2.72,5.26-4.17,7.59-.4.64-.79,1.25-1.18,1.79a.08.08,0,0,1,0,0,.64.64,0,0,0,0-.07,1,1,0,0,0,.08-.23c.09-.29.24-.77.44-1.38.55-1.75,1.46-4.66,2.45-8,1.89-6.28,4.08-14,4.68-17.7a8.4,8.4,0,0,1,1.11,2.21A10.71,10.71,0,0,1,159.07,256.45Z" style="fill:#fff;opacity:0.6000000000000001"></path><path d="M162.07,233.31l0,.65-.32,9.4h0l-.07,0h0a8.83,8.83,0,0,0-4.05,2.47c-.89,1.14-1.08,2.66,0,4.79,0,0,.23,2-4.56,1.81-1-9.19-4.28-12-4.28-12C153.14,241.21,159.09,236.29,162.07,233.31Z" style="fill:#ce7a63"></path><path d="M162.05,234l-.32,9.4-.07,0h0a8.83,8.83,0,0,0-4.05,2.47C157.28,242.62,158,236.6,162.05,234Z" style="opacity:0.2"></path><path d="M152.68,250.37c-2.19-1.9-6.06.27-6.06.27s-.84-8.42.32-12.33c1.08.42,2.86.86,2.86.86S152.83,248,152.68,250.37Z" style="fill:#FF725E"></path><path d="M155.19,252.37s1.11.56.7,4.14a9.07,9.07,0,0,0,2.1-8.29,2.59,2.59,0,0,0-1-1.21,2.73,2.73,0,0,0-.09,1.75C157.23,250.18,155.19,252.37,155.19,252.37Z" style="fill:#FF725E"></path><path d="M152.68,250.37c-2.19-1.9-6.06.27-6.06.27s-.84-8.42.32-12.33c1.08.42,2.86.86,2.86.86S152.83,248,152.68,250.37Z" style="opacity:0.2"></path><path d="M155.19,252.37s1.11.56.7,4.14a9.07,9.07,0,0,0,2.1-8.29,2.59,2.59,0,0,0-1-1.21,2.73,2.73,0,0,0-.09,1.75C157.23,250.18,155.19,252.37,155.19,252.37Z" style="opacity:0.2"></path><path d="M168.22,226.59c-5.74,4.24-8.25,5.9-9.53,11-1.94,7.61,4.07,13.89,10.85,11.49,6.1-2.16,14.45-8.72,13.39-16.23A9.13,9.13,0,0,0,168.22,226.59Z" style="fill:#ce7a63"></path><path d="M185.32,229.67c1.5,5-.88,13.69-4.16,7.75-2,.68-3.32-3-3.19-6-1.35.9-5.14-.57-5.41-4.24-.38,2.3-5.38,4.2-6.49,2s-4.14-6.72,4.42-8.81S183.7,224.34,185.32,229.67Z" style="fill:#263238"></path><path d="M175,241.46c-.5.33-.74.87-.55,1.2s.74.33,1.24,0,.75-.87.55-1.2S175.47,241.13,175,241.46Z" style="fill:#263238"></path><path d="M176.1,241.32l1.05,1S175.86,242.31,176.1,241.32Z" style="fill:#263238"></path><path d="M172.75,240.24a17.45,17.45,0,0,0-2.14,3.93c-1-.25-1.37-1.57-1.37-1.57Z" style="fill:#ba4d3c"></path><path d="M166.24,238.06a5.11,5.11,0,0,0-.54-.83.15.15,0,0,0-.23,0,.19.19,0,0,0,0,.25,5,5,0,0,1,.91,4.21.17.17,0,1,0,.32.1A5.31,5.31,0,0,0,166.24,238.06Z" style="fill:#263238"></path><path d="M162.16,227.75a5.67,5.67,0,0,0-.51,4.34c.57,1.86,2.57,1.58,3.85,0,1.15-1.37,2.24-4,1-5.36S163.08,226.07,162.16,227.75Z" style="fill:#ce7a63"></path><path d="M172.53,233.49a.34.34,0,0,0,.15.22,2.56,2.56,0,0,1,1.26,2.08.32.32,0,0,0,.34.33.38.38,0,0,0,.35-.37,3.2,3.2,0,0,0-1.56-2.64.35.35,0,0,0-.48.13A.39.39,0,0,0,172.53,233.49Z" style="fill:#263238"></path><path d="M179.76,241.89a.33.33,0,0,0,.16.19.35.35,0,0,0,.46-.17,3.6,3.6,0,0,0,.12-3.24.32.32,0,0,0-.46-.12.38.38,0,0,0-.13.49,2.92,2.92,0,0,1-.13,2.57A.39.39,0,0,0,179.76,241.89Z" style="fill:#263238"></path><path d="M171.66,236.6l1,1S171.41,237.59,171.66,236.6Z" style="fill:#263238"></path><path d="M172.21,237.12a1.89,1.89,0,0,0-1.4-2.26,2,2,0,0,1,.82,2Z" style="fill:#263238"></path><path d="M146.94,238.31s-8.43,27.65-36.71,46.05a63.7,63.7,0,0,0-9.78,13.43s-6-1-8-4.66c0,0,3-24.56,17.73-28.84,0,0,21.39-24.21,25.27-28.78S145.88,235,146.94,238.31Z" style="fill:#FF725E"></path><path d="M146.94,238.31a81.87,81.87,0,0,1-9.75,19.27A97.57,97.57,0,0,1,130,267a.21.21,0,0,0,0,.06c-.06.07-.12.13-.17.2l-.37.42a93,93,0,0,1-19.21,16.68,63.31,63.31,0,0,0-9.78,13.43s-6.06-1-8-4.66c0,0,3-24.56,17.74-28.84,0,0,21.39-24.21,25.26-28.78,3.42-4,8.93-1.35,10.91,1.6A4.69,4.69,0,0,1,146.94,238.31Z" style="fill:#fff;opacity:0.7000000000000001"></path><path d="M146.12,237.12a2.53,2.53,0,0,1,2.67,1.19s-2.94,13.11-19,28.94c0,0,6.66-7.83,9.49-21.38l4.28-1.7-1.84-4.67S144.19,237.36,146.12,237.12Z" style="fill:#FF725E"></path><path d="M148.79,238.31s-2.08,9.26-12.24,21.61a98.29,98.29,0,0,1-6.65,7.25l.09-.11a.21.21,0,0,1,0-.06,47.42,47.42,0,0,0,6.23-11.15,57.72,57.72,0,0,0,3-10l4.29-1.7-1.85-4.67s2.46-2.14,4.39-2.38a.69.69,0,0,1,.2,0A2.46,2.46,0,0,1,148.79,238.31Z" style="fill:#fff;opacity:0.6000000000000001"></path><rect x="217.54" y="297.63" width="3.11" height="120.29" style="fill:#263238"></rect><rect x="217.53" y="297.63" width="3.11" height="120.29" style="fill:#fff;opacity:0.4"></rect><polygon points="220.64 297.63 220.64 320.4 217.53 319.45 217.53 297.63 220.64 297.63" style="opacity:0.2"></polygon><rect x="184.02" y="297.63" width="3.11" height="120.29" style="fill:#263238"></rect><rect x="184.02" y="297.63" width="3.11" height="120.29" style="fill:#fff;opacity:0.4"></rect><polygon points="184.02 297.63 187.13 297.63 187.13 310.13 184.02 309.17 184.02 297.63" style="opacity:0.2"></polygon><rect x="160.98" y="297.63" width="3.11" height="120.29" style="fill:#263238"></rect><rect x="194.5" y="297.63" width="3.11" height="120.29" style="fill:#263238"></rect><rect x="160.98" y="297.63" width="3.11" height="120.29" style="fill:#fff;opacity:0.5"></rect><rect x="194.49" y="297.63" width="3.11" height="120.29" style="fill:#fff;opacity:0.5"></rect><rect x="159.87" y="294.59" width="62.32" height="6.07" style="fill:#263238"></rect><rect x="159.87" y="294.59" width="62.32" height="6.07" style="fill:#fff;opacity:0.5"></rect><path d="M196,293.13V417.77h-1.55V300.66h-30.4V417.77H161V300.66h-1.11v-4.59h-1.33a1.47,1.47,0,1,1,0-2.94Z" style="fill:#fff;opacity:0.2"></path><path d="M225,294.59a1.47,1.47,0,0,1-1.47,1.48h-65a1.47,1.47,0,1,1,0-2.94h65A1.47,1.47,0,0,1,225,294.59Z" style="fill:#263238"></path><path d="M225,294.59a1.47,1.47,0,0,1-1.47,1.48h-65a1.47,1.47,0,1,1,0-2.94h65A1.47,1.47,0,0,1,225,294.59Z" style="fill:#fff;opacity:0.6000000000000001"></path><path d="M197.75,294.59a1.47,1.47,0,0,1-1.46,1.48H158.54a1.47,1.47,0,1,1,0-2.94h37.75A1.47,1.47,0,0,1,197.75,294.59Z" style="fill:#fff;opacity:0.6000000000000001"></path><polygon points="180.27 267.37 181.94 271.69 182.46 271.48 180.58 267.09 180.27 267.37" style="fill:#263238"></polygon><polygon points="180.27 267.37 181.94 271.69 182.46 271.48 180.58 267.09 180.27 267.37" style="fill:#fff;opacity:0.2"></polygon><rect x="180.68" y="289.57" width="14.8" height="1.73" style="fill:#263238"></rect><rect x="180.68" y="289.57" width="14.8" height="1.73" style="fill:#fff;opacity:0.1"></rect><polygon points="184.24 286.85 195.06 282.57 195.48 283.72 184.92 287.95 184.24 286.85" style="fill:#263238"></polygon><polygon points="184.24 286.85 195.06 282.57 195.48 283.72 184.92 287.95 184.24 286.85" style="fill:#fff;opacity:0.1"></polygon><polygon points="191.19 273.6 191.92 275.56 186.75 277.5 185.73 275.55 191.19 273.6" style="fill:#263238"></polygon><polygon points="191.19 273.6 191.92 275.56 186.75 277.5 185.73 275.55 191.19 273.6" style="fill:#fff;opacity:0.05"></polygon><polygon points="179.16 275.72 180.27 278.42 198.04 271.69 196.68 268.96 179.16 275.72" style="fill:#263238"></polygon><polygon points="185.73 277.5 192.29 275.04 192.86 276.55 186.43 279.01 185.73 277.5" style="fill:#263238"></polygon><polygon points="179.16 275.72 180.27 278.42 198.04 271.69 196.68 268.96 179.16 275.72" style="fill:#fff;opacity:0.2"></polygon><polygon points="185.73 277.5 192.29 275.04 192.86 276.55 186.43 279.01 185.73 277.5" style="fill:#fff;opacity:0.1"></polygon><path d="M186.43,265.78l1.15,3.56-2.14.73-1.57-3.61S185.23,265.09,186.43,265.78Z" style="fill:#263238"></path><path d="M188.73,262l4.13,2.87-1.15,1.94-4.13-2.2A2.69,2.69,0,0,1,188.73,262Z" style="fill:#263238"></path><path d="M186.43,265.78l1.15,3.56-2.14.73-1.57-3.61S185.23,265.09,186.43,265.78Z" style="fill:#fff;opacity:0.05"></path><path d="M188.73,262l4.13,2.87-1.15,1.94-4.13-2.2A2.69,2.69,0,0,1,188.73,262Z" style="fill:#fff;opacity:0.05"></path><path d="M172.16,259.4l5.7-1.77,3.71,10.3-5.07,2-.14-.11a2.72,2.72,0,0,0-2.63-.33l-1,.38a1.42,1.42,0,0,0-.87,1.52h0a16.23,16.23,0,0,0,4.18,8.74h0a1.2,1.2,0,0,0,1.35.29l1.44-.68a2.26,2.26,0,0,0,1.27-1.69h0l7.65-2.86.37,1-3.66,1.42-.63,4.24,2.09,6.43-3.19,1.25S171.9,285.92,169,276.85,172.16,259.4,172.16,259.4Z" style="fill:#FF725E"></path><path d="M172.16,259.4l5.7-1.77,3.71,10.3-5.07,2-.14-.11a2.72,2.72,0,0,0-2.63-.33l-1,.38a1.42,1.42,0,0,0-.87,1.52h0a16.23,16.23,0,0,0,4.18,8.74h0a1.2,1.2,0,0,0,1.35.29l1.44-.68a2.26,2.26,0,0,0,1.27-1.69h0l7.65-2.86.37,1-3.66,1.42-.63,4.24,2.09,6.43-3.19,1.25S171.9,285.92,169,276.85,172.16,259.4,172.16,259.4Z" style="fill:#fff;opacity:0.7000000000000001"></path><circle cx="177.57" cy="267.37" r="1.59" style="fill:#263238"></circle><polygon points="186.75 262.69 185.66 264.37 183.04 265.42 180.48 264.9 176.31 254.16 175.98 253.28 176.99 251.78 173.8 243.35 177.57 241.88 180.57 250.46 182.41 251.15 182.68 251.88 186.75 262.69" style="fill:#FF725E"></polygon><polygon points="186.75 262.69 185.66 264.37 183.04 265.42 180.48 264.9 176.31 254.16 175.98 253.28 176.99 251.78 173.8 243.35 177.57 241.88 180.57 250.46 182.41 251.15 182.68 251.88 186.75 262.69" style="fill:#fff;opacity:0.5"></polygon><polygon points="182.68 251.88 176.31 254.16 175.98 253.28 176.99 251.78 173.8 243.35 177.57 241.88 180.57 250.46 182.41 251.15 182.68 251.88" style="fill:#263238"></polygon><polygon points="184.92 265.78 186.75 265.99 187.95 265 187.95 262.23 184.92 265.78" style="fill:#263238"></polygon><polygon points="188.6 284.61 189.52 286.54 195.95 284.03 195.11 282.15 188.6 284.61" style="fill:#263238"></polygon><path d="M172.63,291.3l4.57-7.94a2.68,2.68,0,0,1,2.45-1.34h0a2.67,2.67,0,0,1,2.54,2.57l.27,6.71Z" style="fill:#FF725E"></path><path d="M172.63,291.3l4.57-7.94a2.68,2.68,0,0,1,2.45-1.34h0a2.67,2.67,0,0,1,2.54,2.57l.27,6.71Z" style="fill:#fff;opacity:0.5"></path><circle cx="179.37" cy="284.95" r="1.59" style="fill:#263238"></circle><rect x="168.76" y="291.04" width="29.91" height="2.35" style="fill:#263238"></rect><path d="M180.58,260a2.72,2.72,0,1,1-2.72-2.72A2.72,2.72,0,0,1,180.58,260Z" style="fill:#263238"></path><circle cx="177.57" cy="267.37" r="1.59" style="fill:#fff;opacity:0.1"></circle><polygon points="182.68 251.88 176.31 254.16 175.98 253.28 176.99 251.78 173.8 243.35 177.57 241.88 180.57 250.46 182.41 251.15 182.68 251.88" style="fill:#fff;opacity:0.2"></polygon><polygon points="184.92 265.78 186.75 265.99 187.95 265 187.95 262.23 184.92 265.78" style="fill:#fff;opacity:0.1"></polygon><polygon points="188.6 284.61 189.52 286.54 195.95 284.03 195.11 282.15 188.6 284.61" style="fill:#fff;opacity:0.2"></polygon><circle cx="179.37" cy="284.95" r="1.59" style="fill:#fff;opacity:0.1"></circle><rect x="168.76" y="291.04" width="29.91" height="2.35" style="fill:#fff;opacity:0.2"></rect><path d="M180.58,260a2.72,2.72,0,1,1-2.72-2.72A2.72,2.72,0,0,1,180.58,260Z" style="fill:#fff;opacity:0.2"></path><circle cx="177.86" cy="259.98" r="1.36" style="fill:#fff;opacity:0.5"></circle><polygon points="182.46 265.78 188.26 260.19 189.57 261.56 183.66 267.37 182.46 265.78" style="fill:#263238"></polygon><polygon points="182.46 265.78 188.26 260.19 189.57 261.56 183.66 267.37 182.46 265.78" style="fill:#fff;opacity:0.2"></polygon><path d="M161.21,264.89l9.4-2.45.79,8.46s-6.33,2.63-10.25-1.45Z" style="fill:#ce7a63"></path><polygon points="177.33 264.05 176.42 270.49 171.4 270.9 170.61 262.44 177.33 264.05" style="fill:#ce7a63"></polygon><path d="M137.19,257.58a4.47,4.47,0,0,0-.64,2.34,98.29,98.29,0,0,1-6.65,7.25l-.06.07,0,0-.37.42c-2.11-9.78,2.06-20.67,2.06-20.67l4.75,8.84Z" style="opacity:0.2"></path><path d="M157.3,267.85c-1.07,2.21-2.27,4.6-3.51,7h0l-2.84.31-.57.06h-.06c.55-1.75,1.46-4.66,2.45-8l.27,0,2.08.26Z" style="opacity:0.2"></path><path d="M139,233.39c8-.5,3.22,24,5.08,26.59s20.11,2.72,20.11,2.72l-1.85,10.09s-20.2,1.39-25.32-1.5c-7.67-4.35-7.71-17.64-5-29.23C133.2,236.86,136.9,233.52,139,233.39Z" style="fill:#FF725E"></path><path d="M139,233.39c8-.5,3.22,24,5.08,26.59s20.11,2.72,20.11,2.72l-1.85,10.09s-20.2,1.39-25.32-1.5c-7.67-4.35-7.71-17.64-5-29.23C133.2,236.86,136.9,233.52,139,233.39Z" style="fill:#fff;opacity:0.7000000000000001"></path></g></svg>